<?xml version="1.0" encoding="utf-8"?>
<!-- Generator: Adobe Illustrator 19.2.1, SVG Export Plug-In . SVG Version: 6.00 Build 0)  -->
<svg version="1.1" id="layer" xmlns="http://www.w3.org/2000/svg" xmlns:xlink="http://www.w3.org/1999/xlink" x="0px" y="0px"
	 viewBox="0 0 652 652" style="enable-background:new 0 0 652 652;" xml:space="preserve">
<style type="text/css">
	.st0{fill:#ffffff;}
	.st1{fill:#ffffff;}
	.st2{fill-rule:evenodd;clip-rule:evenodd;fill:#ffffff;}
</style>
<g>
	<path class="st0" d="M311,377.4c-40.5-59.6-4.3-98.1-1.3-108.3c0,0-54.6,48.7-2.5,108.3L311,377.4z"/>
	<path class="st0" d="M264.7,266.7c-15.5,29.7,16.7,43,16.7,43C296.2,276.9,264.7,266.7,264.7,266.7"/>
	<path class="st0" d="M342.2,264.5c-34-2.1-36,27-36,27C347.2,289.8,342.2,264.5,342.2,264.5"/>
	<path class="st0" d="M291.9,284.6c21.1-27.6-7.8-41.7-7.8-41.7C264.9,268.1,291.9,284.6,291.9,284.6"/>
	<path class="st0" d="M298.3,314c38,8.9,41.1-19,41.1-19C304.8,285.2,298.3,314,298.3,314"/>
	<path class="st1" d="M327.6,229.3c0,0,16.4,29.3-20.7,36.5C306.9,265.8,295.2,231.1,327.6,229.3"/>
	<path class="st2" d="M273.6,312.1c1.4,0.9,3.6,2,5.7,2.9l0.4,0.2c-1.6,12.2-0.2,26,6.5,40.7l0.2,0.3h-22.4v-40.3l-39.2-61.8h25.5
		l7.8,13.1c-6.8,15.6-2.1,27.8,4.8,35.8C266.4,307.2,270.5,310.2,273.6,312.1 M525.4,274.3h-31.3v81.9h-21.8v-81.9H441v-20.1h84.3
		V274.3z M348.5,254.3h83v16.6l-57,66.3h57v19h-84.8v-16.6l56.9-66.3h-55.2V254.3z M184.5,304.1h-23.3v-30.2h22.8
		c11.1,0,18.1,5.1,18.1,15v0.3C202.2,298.1,195.7,304.1,184.5,304.1 M202.6,319.5l-0.5,0.2l25,36.5h-25.5l-22-32.9h-0.5h-17.8v32.9
		h-21.8V254.3H186c13,0,23,3.6,29.7,10.3c5.7,5.6,8.7,13.6,8.7,23.2v0.3C224.3,304.5,215.5,314.7,202.6,319.5 M621,356.2h-22.8
		l-9.4-23h-43.9l-9.4,23h-22.2l43.7-102.7h20.3L621,356.2z M566.8,279.3L581,314h-28.4L566.8,279.3z M85,253.5l43.7,102.7h-22.8
		l-9.4-23h-44l-9.4,23H21l43.7-102.7H85z M74.5,279.3L88.7,314H60.3L74.5,279.3z"/>
	<path class="st2" d="M129.8,403.5h1.7c1.5,0,2.1-0.3,2.5-1.7l4.7-18.7c0.4-1.5-0.2-1.7-1.6-1.7h-1.7l0.5-2.1h10.8
		c5.8,0,9.1,2.7,9.1,6.7c0,5.8-5.2,8.5-12.3,8.5H140l-1.9,7.4c-0.4,1.5,0.2,1.7,1.6,1.7h2.3l-0.5,2.1h-12.3L129.8,403.5z
		 M143.9,392.3c5.8,0,7.3-2.9,7.3-7.1c0-2.4-1.1-3.9-4.5-3.9h-1.4c-1.5,0-2.1,0.3-2.5,1.7l-2.3,9.2H143.9z M168.4,393
		c0-2.2-0.7-3.5-2.1-3.5c-3.5,0-5.7,6.6-5.7,11.1c0,1.8,0.7,2.9,1.8,2.9C164.7,403.5,168.4,398.3,168.4,393 M156.4,399.7
		c0-6.7,5-12.6,9.3-12.6c2.7,0,3.7,1.3,4.4,3.8c1-0.9,1.8-2.4,2.4-3.8h2.2l-4.1,13.4c-0.3,0.9-0.5,1.7-0.5,2.2
		c0,0.4,0.2,0.6,0.4,0.6c0.6,0,1.3-1,2.9-3.4l1.5,1c-1.9,3.2-3.4,4.9-5.5,4.9c-2.1,0-2.6-1.2-2.6-2.1c0-0.7,0.2-1.2,0.3-1.6
		c-1.7,2.2-3.2,3.9-5.8,3.9C158.4,406.1,156.4,403.9,156.4,399.7 M219.1,381.8c0-1.5,1.3-2.7,2.9-2.7c1.5,0,2.8,1.3,2.8,2.7
		c0,1.5-1.3,2.7-2.8,2.7C220.4,384.5,219.1,383.3,219.1,381.8 M214.6,403c0-0.7,0.3-2,0.7-3l2.8-8.6c0.2-0.5,0.2-0.9,0.2-1.2
		c0-0.3-0.4-0.6-1.3-0.6h-1.9l0.5-2l7.1-0.3c-0.1,2.2-0.5,3.5-1.2,5.6l-2.4,7.5c-0.3,1-0.6,2-0.6,2.5c0,0.3,0,0.5,0.3,0.5
		c0.6,0,1.2-0.8,2.8-3.2l1.5,1c-1.9,3.2-3.3,4.8-5.6,4.8C215.6,405.9,214.6,404.7,214.6,403 M239.6,392.2c0-2.4-0.7-3.4-1.9-3.4
		c-3.6,0-6.1,6.4-6.1,12.1c0,2.3,0.7,3.4,1.9,3.4C237.1,404.3,239.6,397.8,239.6,392.2 M227.5,399c0-5.8,5-12.1,10.2-12.1
		c4,0,6.2,3.2,6.2,7.3c0,5.7-5,12-10.2,12C229.6,406.2,227.5,403.1,227.5,399 M178.3,401.7c0-1.7,1.2-2.7,2.4-2.7
		c1.2,0,2.4,0.7,2.4,2.1c0,1.4-1.3,1.5-1.3,2.2c0,0.5,1,1.1,2.9,1.1c1.9,0,3-1.3,3-2.9c0-1.7-0.9-2.3-3-3.6c-2-1.2-3.8-2.7-3.8-5.6
		c0-3,2.4-5.4,6.6-5.4c3.7,0,5.4,1.9,5.4,3.7c0,1.3-0.7,2.5-2.2,2.5c-1,0-2-0.8-2-1.9c0-1.1,0.8-1.3,0.8-1.7c0-0.4-0.7-0.7-2.1-0.7
		c-1.8,0-3,1-3,2.5c0,1.6,0.8,2,2.6,3.2c2.2,1.4,4.3,2.7,4.3,6c0,3.3-2.7,5.7-6.6,5.7C180.3,406.2,178.3,403.9,178.3,401.7
		 M195.8,401.7c0-1.7,1.2-2.7,2.4-2.7c1.2,0,2.4,0.7,2.4,2.1c0,1.4-1.3,1.5-1.3,2.2c0,0.5,1,1.1,2.9,1.1c1.9,0,3-1.3,3-2.9
		c0-1.7-0.9-2.3-3-3.6c-2-1.2-3.8-2.7-3.8-5.6c0-3,2.4-5.4,6.6-5.4c3.7,0,5.4,1.9,5.4,3.7c0,1.3-0.7,2.5-2.2,2.5c-1,0-2-0.8-2-1.9
		c0-1.1,0.8-1.3,0.8-1.7c0-0.4-0.7-0.7-2.1-0.7c-1.8,0-3,1-3,2.5c0,1.6,0.8,2,2.6,3.2c2.2,1.4,4.3,2.7,4.3,6c0,3.3-2.7,5.7-6.6,5.7
		C197.8,406.2,195.8,403.9,195.8,401.7 M307.4,392.2c0-2.4-0.7-3.4-1.9-3.4c-3.6,0-6.1,6.4-6.1,12.1c0,2.3,0.7,3.4,1.9,3.4
		C304.9,404.3,307.4,397.8,307.4,392.2 M295.3,399c0-5.8,5-12.1,10.2-12.1c4.1,0,6.2,3.2,6.2,7.3c0,5.7-5,12-10.2,12
		C297.4,406.2,295.3,403.1,295.3,399 M354.3,391.6c0-1.6-0.8-3-2.3-3c-2.4,0-3.9,3.7-3.9,6.6c0,1.9,0.9,3.2,2.2,3.2
		C352.7,398.3,354.3,394.7,354.3,391.6 M353.7,408.6c0-1.9-2.5-2.6-6.6-2.6c-2.9,0-4.3,1.2-4.3,2.7c0,2.1,2.5,2.9,5.8,2.9
		C351.8,411.5,353.7,410.5,353.7,408.6 M338.8,408.9c0-2.3,2.8-3.7,6.5-4.1c-2.4-0.7-3.6-1.6-3.6-2.9c0-1.1,1.4-2.4,4.2-3.4
		c-1.3-1.1-2-2.7-2-4.4c0-4.2,3.7-7.2,7.6-7.2c1.2,0,2.4,0.3,3.3,0.8c1.7-1.9,2.8-2.4,4.4-2.4c1.2,0,2.5,0.9,2.5,2.4
		c0,1.2-0.9,2-2,2c-1.1,0-1.7-0.7-1.8-1.9c-0.6-0.3-1.1,0.1-1.8,0.8c1.4,1.2,2.2,2.8,2.2,4.4c0,3.9-3.4,7.2-7.9,7.2
		c-1.1,0-2.2-0.2-3.1-0.7c-1.3,0.7-1.6,1.2-1.6,1.5c0,0.7,0.7,0.9,4.6,1.5c4.8,0.7,6.6,2.6,6.6,5.2c0,3.2-2.9,5.9-8.7,5.9
		C343.2,413.6,338.8,411.9,338.8,408.9 M256.4,403c0-0.9,0.3-2,0.7-3.1l2.3-5.9c0.3-0.9,0.9-2.5,0.9-3.3c0-0.5-0.2-0.9-0.8-0.9
		c-2.5,0-5.9,5.7-7.4,10.2l-1.8,5.6h-4.1l4.7-14.3c0.2-0.5,0.2-0.9,0.2-1.2c0-0.3-0.4-0.6-1.3-0.6h-1.7l0.5-2l6.7-0.3
		c0,1-0.5,2.6-1.2,4.3l-0.5,1.3c2.4-3.4,4.2-5.6,7.3-5.6c2.3,0,3.4,1.3,3.4,3.4c0,1.3-0.5,2.7-0.9,3.8l-2.4,6.1
		c-0.2,0.6-0.7,1.8-0.7,2.3c0,0.4,0.1,0.6,0.4,0.6c0.6,0,1.2-0.9,2.9-3.2l1.5,1c-2,3.2-3.4,4.8-5.6,4.8
		C257.3,405.9,256.4,404.7,256.4,403 M276.5,410.8c0-1.2,0.9-2,1.7-2c1,0,1.7,0.5,1.9,1.4c0.1,0.3,0.1,0.7,0.3,0.7
		c0.4,0,0.9-0.9,1.6-4l4.1-17.1h-2.2l0.5-2.2h2.2c1.3-5.3,4.9-8.8,8.4-8.8c1.9,0,3.4,1.1,3.4,2.7c0,1.3-1,2.5-2.5,2.5
		c-1.2,0-1.9-0.7-1.9-1.8c0-0.7,0.3-1,0.3-1.2c0-0.1-0.1-0.4-0.5-0.2c-1.1,0.5-1.7,1.5-2.9,5.7l-0.3,1h3.7l-0.5,2.2h-3.7l-2.2,8.6
		c-3,11.7-5.7,14.7-8.8,14.7C277.4,413.1,276.5,412,276.5,410.8 M395.3,392.2c0-2.4-0.7-3.4-1.9-3.4c-3.6,0-6.1,6.4-6.1,12.1
		c0,2.3,0.7,3.4,1.9,3.4C392.8,404.3,395.3,397.8,395.3,392.2 M383.2,399c0-5.8,5-12.1,10.2-12.1c4,0,6.2,3.2,6.2,7.3
		c0,5.7-5,12-10.2,12C385.2,406.2,383.2,403.1,383.2,399 M415.7,393c0-2.2-0.8-3.5-2.3-3.5c-3,0-5.6,5-5.6,11c0,2.2,0.6,3,1.9,3
		C412.1,403.5,415.7,398.3,415.7,393 M403.5,399.7c0-6.8,5-12.6,9.4-12.6c2.8,0,3.6,1.3,4.3,3l0.9-3.6l0.9-3.1
		c0.2-0.6,0.3-1.1,0.3-1.4c0-0.4-0.3-0.6-1.3-0.6H416l0.5-2.1l7.9-0.7l-6.7,21.9c-0.3,0.9-0.5,1.7-0.5,2.2c0,0.4,0.2,0.6,0.4,0.6
		c0.6,0,1.3-1,2.9-3.4l1.5,1c-1.9,3.2-3.4,4.9-5.5,4.9c-2.1,0-2.6-1.2-2.6-2.1c0-0.7,0.2-1.2,0.3-1.6c-1.7,2.1-3.2,3.9-5.9,3.9
		C405.5,406.1,403.5,403.9,403.5,399.7 M318.6,391.4c0.2-0.5,0.2-0.9,0.2-1.2c0-0.3-0.4-0.6-1.3-0.6h-1.7l0.5-2l6.6-0.3
		c-0.1,1-0.4,2.4-1.2,4.3l-0.7,1.6c2.4-3.7,4.1-6,6.5-6c1.2,0,2.6,0.6,2.6,2.6c0,1.5-1.1,2.8-2.4,2.8c-1,0-1.6-0.5-1.9-1.3
		c-0.1-0.2-0.2-0.5-0.4-0.5c-1.3,0-4.2,4.5-5.8,9.4l-1.8,5.7h-4.1L318.6,391.4z M432.1,410.8c0-1.2,0.8-2,1.7-2c1,0,1.7,0.5,1.9,1.4
		c0.1,0.3,0.1,0.7,0.3,0.7c0.4,0,0.9-0.9,1.6-4l4.1-17.1h-2.2l0.5-2.2h2.2c1.3-5.3,4.9-8.8,8.4-8.8c1.9,0,3.4,1.1,3.4,2.7
		c0,1.3-1,2.5-2.5,2.5c-1.2,0-1.9-0.7-1.9-1.8c0-0.7,0.3-1,0.3-1.2c0-0.1-0.1-0.4-0.5-0.2c-1.1,0.5-1.7,1.5-2.9,5.7l-0.3,1h3.7
		l-0.5,2.2h-3.7l-2.2,8.6c-3,11.7-5.7,14.7-8.8,14.7C433,413.1,432.1,412,432.1,410.8 M483.4,392.2c0-2.4-0.7-3.4-1.9-3.4
		c-3.5,0-6.1,6.4-6.1,12.1c0,2.3,0.7,3.4,1.9,3.4C480.9,404.3,483.4,397.8,483.4,392.2 M471.3,399c0-5.8,5-12.1,10.2-12.1
		c4,0,6.2,3.2,6.2,7.3c0,5.7-5,12-10.2,12C473.4,406.2,471.3,403.1,471.3,399 M503.9,393c0-2.2-0.8-3.5-2.3-3.5c-3,0-5.6,5-5.6,11
		c0,2.2,0.6,3,1.9,3C500.3,403.5,503.9,398.3,503.9,393 M491.7,399.7c0-6.8,5-12.6,9.4-12.6c2.8,0,3.6,1.3,4.3,3l0.9-3.6l0.9-3.1
		c0.2-0.6,0.3-1.1,0.3-1.4c0-0.4-0.3-0.6-1.3-0.6h-1.9l0.5-2.1l7.9-0.7l-6.7,21.9c-0.3,0.9-0.5,1.7-0.5,2.2c0,0.4,0.2,0.6,0.4,0.6
		c0.6,0,1.3-1,2.9-3.4l1.5,1c-1.9,3.2-3.4,4.9-5.5,4.9c-2.1,0-2.6-1.2-2.6-2.1c0-0.7,0.2-1.2,0.3-1.6c-1.7,2.1-3.2,3.9-5.9,3.9
		C493.7,406.1,491.7,403.9,491.7,399.7 M375.2,392.2c0-2.4-0.7-3.4-1.9-3.4c-3.6,0-6.1,6.4-6.1,12.1c0,2.3,0.7,3.4,1.9,3.4
		C372.7,404.3,375.2,397.8,375.2,392.2 M363.1,399c0-5.8,5-12.1,10.2-12.1c4.1,0,6.2,3.2,6.2,7.3c0,5.7-5,12-10.2,12
		C365.1,406.2,363.1,403.1,363.1,399 M463.3,392.2c0-2.4-0.7-3.4-1.9-3.4c-3.6,0-6.1,6.4-6.1,12.1c0,2.3,0.7,3.4,1.9,3.4
		C460.8,404.3,463.3,397.8,463.3,392.2 M451.2,399c0-5.8,5-12.1,10.2-12.1c4,0,6.2,3.2,6.2,7.3c0,5.7-5,12-10.2,12
		C453.3,406.2,451.2,403.1,451.2,399"/>
</g>
</svg>
