<svg xmlns="http://www.w3.org/2000/svg" width="1728" height="864" viewBox="0 0 1728 864" version="1.1"><path d="M 367.500 116.604 C 334.613 138.884, 325.066 144.903, 323.500 144.343 C 321.136 143.499, 295 142.651, 295 143.419 C 295 143.709, 297.094 147.339, 299.653 151.486 C 302.213 155.634, 304.125 159.201, 303.903 159.414 C 303.490 159.812, 170.581 218.941, 164.782 221.307 L 161.565 222.620 169.033 226.742 L 176.501 230.865 247.366 206.381 C 286.341 192.915, 318.422 182.089, 318.657 182.324 C 318.892 182.559, 329.185 199.105, 341.530 219.093 C 356.966 244.086, 363.589 255.645, 362.738 256.109 C 362.057 256.481, 357.900 257.779, 353.500 258.995 C 341.939 262.190, 323.043 269.499, 311.500 275.240 C 284.215 288.810, 267.855 304.678, 261.287 323.942 C 258.513 332.081, 258.187 347.051, 260.581 356.356 C 270.006 392.975, 314.997 436.533, 378.222 470.249 C 384.670 473.687, 389.947 476.725, 389.951 477 C 389.954 477.275, 343.504 500.675, 286.728 529 C 196.488 574.020, 183.325 580.869, 182.109 583.431 C 180.796 586.196, 180.871 586.486, 183.428 588.525 C 190.139 593.876, 202.127 600.260, 206.359 600.737 C 211.640 601.332, 214.783 600.354, 241 589.960 C 278.718 575.007, 400.376 523.607, 434 508.420 C 448.430 501.902, 444.718 501.687, 469.500 510.478 C 501.180 521.716, 533.662 530.605, 566 536.885 C 585.169 540.608, 601.730 543.257, 603.063 542.812 C 603.616 542.628, 596.290 540.284, 586.784 537.604 C 552.158 527.841, 510.960 513.366, 481.622 500.657 C 468.884 495.138, 467.271 494.307, 468.083 493.677 C 468.945 493.008, 566.020 450.902, 570.167 449.399 C 572.550 448.534, 577.875 446.806, 582 445.559 C 589.172 443.389, 589.893 443.350, 598.500 444.668 C 603.450 445.425, 613.800 445.984, 621.500 445.908 L 635.500 445.771 650.500 451.303 C 695.465 467.885, 736.945 477.643, 767.031 478.716 C 790.314 479.546, 804.666 476.007, 813.958 467.145 C 827.398 454.327, 817.635 432.455, 783.073 397.954 C 760.969 375.888, 731.315 352.705, 714.131 344.057 L 707.762 340.851 780.934 268.286 C 862.611 187.286, 858.020 192.739, 848.512 188.029 C 844.190 185.888, 841.857 185.509, 831.012 185.188 C 823.886 184.976, 817.424 185.255, 816 185.835 C 814.625 186.395, 776.213 216.528, 730.640 252.798 C 653.635 314.084, 647.594 318.680, 645.140 317.847 C 643.688 317.353, 631.700 314.047, 618.500 310.499 C 590.956 303.095, 573.916 298.249, 573.316 297.650 C 573.088 297.421, 574.002 295.612, 575.348 293.629 C 580.462 286.093, 581.280 273.389, 577.170 265.333 C 570.839 252.923, 555.636 246.757, 531 246.606 C 517.286 246.522, 507.999 248.930, 500.783 254.440 C 496.179 257.955, 492 264.768, 492 268.759 C 492 271.364, 488.132 274.354, 486.507 273.006 C 485.786 272.407, 483.052 272.776, 478.939 274.027 C 472.277 276.053, 463.858 276.362, 449.187 275.119 L 441.875 274.500 431.901 262.500 L 421.927 250.500 424.714 249.315 C 426.246 248.663, 434.925 246.327, 444 244.123 C 453.075 241.919, 461.400 239.885, 462.500 239.602 C 468.081 238.168, 426.785 242.851, 419.435 244.486 C 417.735 244.864, 411.726 238.142, 385.435 206.451 C 367.871 185.279, 353.386 167.624, 353.247 167.218 C 353.107 166.812, 370.561 149.888, 392.033 129.610 C 413.505 109.331, 430.913 92.579, 430.718 92.384 C 430.313 91.979, 411.117 87.960, 410.140 88.076 C 409.788 88.117, 390.600 100.955, 367.500 116.604 M 365 274.930 C 333.487 293.933, 315.226 322.880, 317.359 350.454 C 319.060 372.458, 328.901 392.223, 349.862 415.736 C 361.670 428.983, 385.485 448.325, 405.347 460.802 L 413.787 466.103 456.246 444.881 L 498.705 423.658 494.103 420.211 C 487.313 415.125, 482.072 409.919, 469.729 396 C 463.632 389.125, 456.630 381.389, 454.167 378.809 L 449.691 374.117 445.896 376.053 C 435.388 381.414, 418.224 380.855, 406.630 374.774 C 395.488 368.931, 373.051 344.433, 373.009 338.066 C 372.989 334.963, 377.361 327.882, 381.150 324.881 C 383.346 323.142, 387.575 320.730, 390.547 319.522 L 395.950 317.326 392.841 314.413 C 387.117 309.049, 377.719 296.560, 374.846 290.500 C 371.515 283.473, 371.283 280.107, 373.905 276.868 C 375.287 275.162, 375.552 274.032, 374.870 272.758 C 373.530 270.254, 372.310 270.523, 365 274.930 M 934.500 293.004 C 914.608 295.217, 899.633 302.425, 886.388 316.161 C 876.136 326.793, 870.368 336.841, 865.156 353.148 C 858.921 372.659, 858.819 386.627, 864.817 399.402 C 868.579 407.412, 871.722 410.986, 878.017 414.413 C 885.487 418.478, 891.970 419.965, 905 420.602 C 936.908 422.159, 958.723 410.225, 975.841 381.845 L 978.046 378.190 962.841 373.110 C 954.479 370.316, 947.559 368.136, 947.465 368.265 C 947.370 368.394, 946.003 370.750, 944.428 373.500 C 940.103 381.046, 932.344 388.354, 926.563 390.324 C 915.758 394.005, 903.819 391.353, 900.593 384.555 C 898.299 379.721, 898.618 370.772, 901.490 359.378 C 907.433 335.801, 918.877 322.728, 934.842 321.281 C 945.405 320.323, 953.987 326.357, 953.996 334.750 C 953.999 336.859, 954.489 338, 955.393 338 C 956.158 338, 964.146 336.425, 973.142 334.500 C 982.138 332.575, 989.663 331, 989.865 331 C 990.768 331, 988.609 319.030, 986.866 314.370 C 984.525 308.115, 978.152 300.628, 972.877 297.937 C 964.370 293.597, 948.039 291.498, 934.500 293.004 M 1407.293 329.442 C 1384.769 334.577, 1367.976 352.228, 1362.048 377 C 1358.391 392.281, 1359.969 402.756, 1367.090 410.482 C 1373.176 417.085, 1379.251 419.262, 1393 419.770 C 1413.252 420.518, 1425.169 416.111, 1438.040 403.114 C 1449.354 391.689, 1455.744 377.034, 1456.729 360.251 C 1457.166 352.817, 1456.921 350.081, 1455.480 346.310 C 1452.868 339.468, 1446.912 333.490, 1440.157 330.929 C 1432.826 328.151, 1416.249 327.400, 1407.293 329.442 M 1007.465 331.250 C 1007.205 331.938, 1001.431 351.962, 994.634 375.750 L 982.275 419 995.935 419 L 1009.594 419 1021.928 375.750 C 1028.712 351.962, 1034.477 331.938, 1034.738 331.250 C 1035.104 330.288, 1032.073 330, 1021.576 330 C 1011.584 330, 1007.811 330.334, 1007.465 331.250 M 1051.074 338.750 C 1049.794 343.563, 1048.526 348.288, 1048.257 349.250 C 1047.807 350.855, 1048.895 351, 1061.383 351 C 1071.683 351, 1075 351.308, 1075 352.263 C 1075 352.957, 1070.786 368.257, 1065.636 386.263 L 1056.272 419 1069.938 419 L 1083.605 419 1091.932 389.750 C 1096.512 373.663, 1100.894 358.363, 1101.669 355.750 L 1103.077 351 1116.996 351 L 1130.915 351 1133.012 343.750 C 1134.165 339.762, 1135.534 335.195, 1136.054 333.601 C 1136.574 332.006, 1137 330.544, 1137 330.351 C 1137 330.158, 1118.190 330, 1095.201 330 L 1053.401 330 1051.074 338.750 M 1161.887 341.755 C 1157.699 348.215, 1144.550 368.238, 1132.666 386.250 L 1111.058 419 1125.010 419 L 1138.963 419 1143.232 411.511 L 1147.500 404.021 1163.250 404.011 L 1179 404 1179 411.500 L 1179 419 1193.481 419 L 1207.962 419 1207.442 414.750 C 1206.946 410.695, 1200.003 332.312, 1200.001 330.750 C 1200 330.337, 1193.138 330.002, 1184.750 330.005 L 1169.500 330.010 1161.887 341.755 M 1226.523 331.250 C 1226.295 331.938, 1225.155 335.875, 1223.990 340 C 1222.824 344.125, 1221.644 348.288, 1221.368 349.250 C 1220.907 350.855, 1221.986 351, 1234.433 351 C 1245.732 351, 1248 351.247, 1248 352.477 C 1248 353.289, 1244.211 367.352, 1239.580 383.727 C 1234.948 400.102, 1230.850 414.738, 1230.471 416.250 L 1229.783 419 1243.353 419 L 1256.923 419 1258.061 414.750 C 1259.165 410.626, 1274.556 356.239, 1275.599 352.777 C 1276.053 351.270, 1277.889 351.020, 1290.275 350.777 L 1304.432 350.500 1306.662 342.500 C 1307.888 338.100, 1309.150 333.488, 1309.465 332.250 L 1310.038 330 1268.488 330 C 1236.135 330, 1226.846 330.277, 1226.523 331.250 M 1328.515 331.250 C 1327.484 334.300, 1304 417.705, 1304 418.316 C 1304 418.692, 1310.045 419, 1317.433 419 C 1329.360 419, 1330.924 418.804, 1331.387 417.250 C 1333.819 409.085, 1356 330.934, 1356 330.528 C 1356 330.237, 1349.911 330, 1342.469 330 C 1332.536 330, 1328.825 330.332, 1328.515 331.250 M 1484.504 331.250 C 1483.159 335.131, 1460 417.122, 1460 418.002 C 1460 418.705, 1464.249 418.966, 1472.649 418.780 L 1485.297 418.500 1492.113 394.620 C 1495.861 381.485, 1499.064 370.603, 1499.230 370.437 C 1499.396 370.271, 1503.800 381.131, 1509.016 394.570 L 1518.500 419.005 1531.463 418.753 L 1544.426 418.500 1557.075 374.250 L 1569.725 330 1556.905 330 L 1544.085 330 1542.099 336.750 C 1541.008 340.462, 1538.014 350.925, 1535.447 360 C 1532.879 369.075, 1530.487 376.820, 1530.129 377.210 C 1529.772 377.601, 1525.253 367.138, 1520.088 353.960 L 1510.697 330 1497.817 330 C 1488.411 330, 1484.820 330.337, 1484.504 331.250 M 1407 350.538 C 1399.258 354.006, 1392.770 363.382, 1389.571 375.724 C 1386.426 387.862, 1388.009 395.353, 1394.357 398.365 C 1400.949 401.493, 1409.456 399.869, 1416.051 394.224 C 1423.092 388.198, 1429 373.545, 1429 362.112 C 1429 356.831, 1428.623 355.610, 1426.132 352.822 C 1423.557 349.939, 1422.612 349.579, 1416.882 349.291 C 1412.627 349.077, 1409.333 349.493, 1407 350.538 M 1168.349 368.860 L 1159.198 384.500 1168.728 384.788 C 1173.969 384.946, 1178.464 384.869, 1178.716 384.617 C 1178.968 384.365, 1178.798 377.198, 1178.337 368.689 L 1177.500 353.220 1168.349 368.860 M 921.627 450.750 C 911.525 485.533, 903.342 512.272, 901.963 515 C 899.493 519.888, 896.123 522.723, 891.844 523.513 C 888.849 524.065, 887.785 523.785, 885.965 521.965 C 883.995 519.995, 883.812 519.068, 884.360 513.828 L 884.978 507.913 881.739 508.485 C 879.958 508.800, 873.608 509.684, 867.628 510.450 C 861.649 511.216, 856.323 512.277, 855.792 512.808 C 855.261 513.339, 854.793 517.312, 854.752 521.637 C 854.640 533.536, 859.118 540.540, 869 543.921 C 874.569 545.827, 889.105 546.435, 896.181 545.058 C 914.765 541.444, 926.929 529.925, 934.157 509.092 C 936.188 503.236, 952 450.459, 952 449.534 C 952 449.240, 945.280 449, 937.067 449 C 923.706 449, 922.081 449.184, 921.627 450.750 M 1074.491 455.324 C 1066.796 458.721, 1060.015 461.816, 1059.423 462.202 C 1058.830 462.588, 1057.528 465.605, 1056.529 468.905 L 1054.712 474.905 1049.651 475.203 L 1044.590 475.500 1041.817 485 C 1040.292 490.225, 1039.034 494.613, 1039.022 494.750 C 1039.010 494.887, 1041.206 495, 1043.902 495 L 1048.804 495 1044.380 509.750 C 1041.948 517.862, 1039.683 527.464, 1039.347 531.087 C 1038.768 537.338, 1038.884 537.839, 1041.619 540.890 C 1044.852 544.499, 1049.512 545.943, 1058 545.969 C 1063.393 545.985, 1076.032 544.301, 1076.879 543.454 C 1077.399 542.934, 1079.912 530.187, 1079.963 527.805 C 1079.994 526.382, 1079.077 526.141, 1074.250 526.305 C 1068.796 526.490, 1068.486 526.371, 1068.227 524 C 1068.078 522.625, 1069.678 515.650, 1071.784 508.500 L 1075.613 495.500 1083.057 495 L 1090.500 494.500 1092.628 487.945 C 1093.798 484.339, 1095.071 479.952, 1095.457 478.195 L 1096.159 475 1089.079 475 C 1085.186 475, 1082 474.748, 1082 474.440 C 1082 474.132, 1083.627 468.484, 1085.615 461.888 C 1087.603 455.293, 1089.062 449.728, 1088.856 449.523 C 1088.651 449.317, 1082.186 451.928, 1074.491 455.324 M 1149.740 495.701 C 1142.172 521.440, 1135.984 542.837, 1135.990 543.250 C 1135.995 543.663, 1142.678 544, 1150.839 544 L 1165.678 544 1168.967 532.750 C 1170.775 526.563, 1173.116 518.688, 1174.168 515.250 L 1176.080 509 1187.290 508.983 C 1212 508.944, 1225.958 501.988, 1233.967 485.718 C 1241.631 470.151, 1240.044 457.266, 1229.789 451.790 C 1225.624 449.566, 1224.605 449.491, 1194.500 449.201 L 1163.500 448.902 1149.740 495.701 M 1257.813 458.027 L 1255.262 467.055 1268.770 466.777 L 1282.278 466.500 1284.639 458.556 C 1285.938 454.187, 1287 450.249, 1287 449.806 C 1287 449.363, 1281.007 449, 1273.682 449 L 1260.363 449 1257.813 458.027 M 1291.376 496.500 L 1277.323 544 1290.912 543.984 L 1304.500 543.968 1317.796 498.734 C 1325.109 473.855, 1331.349 452.488, 1331.663 451.250 C 1332.233 449, 1332.232 449, 1318.831 449 L 1305.429 449 1291.376 496.500 M 1455.832 455.751 L 1441.163 462.296 1439.344 468.648 L 1437.525 475 1432.419 475 L 1427.314 475 1425.025 483.250 C 1423.767 487.788, 1422.519 492.288, 1422.252 493.250 C 1421.840 494.734, 1422.468 495, 1426.383 495 C 1428.923 495, 1431 495.349, 1431 495.776 C 1431 496.202, 1429.180 502.615, 1426.956 510.026 C 1424.613 517.833, 1422.672 526.654, 1422.341 531 C 1421.806 538.018, 1421.930 538.672, 1424.273 541.182 C 1427.931 545.098, 1433.821 546.355, 1445 545.606 C 1460.374 544.575, 1459.508 545.101, 1461.383 535.656 C 1462.273 531.170, 1463.001 527.159, 1463.001 526.741 C 1463 526.324, 1460.622 526.262, 1457.716 526.604 C 1449.399 527.581, 1449.262 526.925, 1454.182 509.692 L 1458.354 495.078 1465.888 494.789 L 1473.421 494.500 1475.543 487.500 C 1476.710 483.650, 1477.974 479.262, 1478.351 477.750 L 1479.038 475 1472.019 475 C 1467.863 475, 1465 474.579, 1465 473.968 C 1465 473.141, 1468.859 459.548, 1471.591 450.750 C 1471.890 449.788, 1471.767 449.046, 1471.317 449.103 C 1470.868 449.159, 1463.899 452.151, 1455.832 455.751 M 1186.025 475.126 C 1184.852 479.182, 1183.466 483.805, 1182.946 485.399 C 1182.426 486.994, 1182 488.456, 1182 488.649 C 1182 489.655, 1196.530 488.805, 1199.329 487.636 C 1204.251 485.579, 1208 480.582, 1208 476.078 C 1208 470.361, 1205.572 468.760, 1196.067 468.210 L 1188.158 467.752 1186.025 475.126 M 988.760 474.134 C 972.985 475.770, 960.181 483.495, 951.808 496.428 C 941.420 512.474, 941.371 531.390, 951.696 539.901 C 956.879 544.174, 962.810 545.505, 976.500 545.468 C 994.853 545.419, 1005.243 541.519, 1015.803 530.717 L 1020.106 526.316 1007.530 525.159 L 994.954 524.002 990.917 526.674 C 985.284 530.402, 977.533 531.012, 973.750 528.026 C 971.416 526.183, 971 525.110, 971 520.927 L 971 516 997.953 516 L 1024.906 516 1026.053 512.250 C 1026.684 510.188, 1027.434 504.591, 1027.719 499.812 C 1028.175 492.189, 1027.961 490.551, 1025.975 486.449 C 1021.248 476.683, 1007.631 472.177, 988.760 474.134 M 1372.500 474.142 C 1355.380 475.736, 1339.517 486.268, 1332.009 501.025 C 1328.345 508.228, 1326.800 514.157, 1326.800 521.021 C 1326.800 535.604, 1336.712 544.479, 1354.308 545.652 C 1370.238 546.713, 1383.748 541.976, 1394.966 531.393 C 1402.951 523.861, 1407.498 515.922, 1409.598 505.851 C 1412.500 491.934, 1407.539 481.065, 1396.097 476.271 C 1391.418 474.311, 1380.892 473.361, 1372.500 474.142 M 1515.722 474.168 C 1501.879 475.224, 1490.840 481.465, 1486.042 490.947 C 1479.728 503.425, 1484.647 512.279, 1499.693 515.520 C 1523.556 520.659, 1522.882 520.349, 1521.572 525.568 C 1520.199 531.041, 1507.005 533.096, 1502.455 528.545 C 1501.105 527.195, 1500 525.337, 1500 524.416 C 1500 522.923, 1499.003 522.815, 1490.750 523.418 C 1485.662 523.790, 1479.315 524.362, 1476.645 524.690 L 1471.790 525.286 1472.446 529.388 C 1473.868 538.278, 1479.341 542.983, 1490.528 544.931 C 1503.897 547.260, 1519.611 545.718, 1529.547 541.103 C 1537.229 537.536, 1541.915 533.414, 1545.220 527.319 C 1549.074 520.209, 1549.569 516.075, 1547.205 510.731 C 1544.497 504.609, 1538.274 501.668, 1523.252 499.412 C 1510.534 497.502, 1508.408 496.497, 1509.329 492.827 C 1510.107 489.727, 1513.763 488, 1519.547 488 C 1524.068 488, 1528 490.459, 1528 493.286 C 1528 494.330, 1530.369 494.344, 1540.594 493.359 C 1547.521 492.691, 1553.425 491.909, 1553.714 491.619 C 1555.199 490.134, 1552.523 483.288, 1549.131 479.896 C 1543.566 474.331, 1534.332 472.748, 1515.722 474.168 M 1252.484 476.250 C 1251.208 479.773, 1233 542.157, 1233 543.006 C 1233 543.615, 1238.134 543.996, 1246.250 543.991 L 1259.500 543.982 1265.269 524.241 C 1268.442 513.383, 1273.003 497.863, 1275.405 489.750 L 1279.770 475 1266.354 475 C 1256.529 475, 1252.816 475.335, 1252.484 476.250 M 987.777 489.947 C 983.873 491.188, 979.846 494.586, 977.255 498.826 C 976.020 500.847, 975.008 502.837, 975.005 503.250 C 975.002 503.663, 980.830 504, 987.955 504 L 1000.909 504 1001.521 500.740 C 1002.200 497.121, 1001.007 493.081, 998.693 491.161 C 996.678 489.488, 991.155 488.874, 987.777 489.947 M 1367.500 493.417 C 1360.689 496.458, 1355.184 505.879, 1354.259 516.080 C 1353.764 521.544, 1353.913 522.067, 1356.789 524.943 C 1360.446 528.600, 1364.295 528.911, 1369.982 526.009 C 1374.959 523.470, 1378.475 518.840, 1381.001 511.498 C 1383.809 503.337, 1383.654 497.563, 1380.545 494.455 C 1377.733 491.642, 1372.423 491.220, 1367.500 493.417 M 187 656.543 C 179.931 658.506, 171.718 663.958, 168.498 668.824 C 167.107 670.926, 165.442 675.158, 164.798 678.228 C 163.198 685.855, 164.833 691.176, 170.434 696.571 C 177.382 703.262, 190.708 705.786, 202.500 702.644 C 228.583 695.693, 235.681 667.520, 213.757 657.960 C 207.008 655.017, 194.821 654.372, 187 656.543 M 753.734 656.088 C 744.830 658.186, 735.038 665.534, 731.866 672.500 C 729.344 678.036, 729.427 686.956, 732.047 692.091 C 739.065 705.849, 765.919 707.971, 781.736 696.017 C 794.261 686.550, 795.449 668.434, 784.062 660.543 C 776.745 655.472, 764.182 653.627, 753.734 656.088 M 981.718 656.092 C 970.048 658.839, 965.260 667.704, 972.029 674.027 C 975.076 676.873, 976.886 677.688, 991.411 682.745 C 1000.509 685.913, 1004.013 689.239, 1002.072 692.865 C 998.716 699.136, 981.450 700.800, 973.728 695.596 C 971.897 694.362, 970.165 692.071, 969.617 690.159 C 968.845 687.468, 968.281 686.957, 966.584 687.413 C 965.438 687.721, 963.712 687.979, 962.750 687.986 C 960.358 688.005, 960.488 691.648, 963.030 695.818 C 965.794 700.351, 972.353 703.076, 982.106 703.745 C 995.995 704.697, 1006.189 701.266, 1010.279 694.262 C 1011.902 691.482, 1012 690.531, 1010.980 687.438 C 1009.473 682.872, 1006.286 680.937, 992.949 676.487 C 980.148 672.216, 978 670.849, 978 666.969 C 978 662.741, 982.513 660.616, 991.500 660.611 C 1000.193 660.605, 1005.397 662.831, 1006.922 667.207 C 1007.879 669.953, 1008.293 670.191, 1011.117 669.627 C 1012.840 669.282, 1014.644 669, 1015.125 669 C 1017.184 669, 1015.741 664.541, 1012.697 661.497 C 1007.058 655.858, 993.073 653.418, 981.718 656.092 M 1046.011 656.903 C 1039.476 659.226, 1036 662.848, 1036 667.333 C 1036 673.783, 1038.947 675.967, 1055.297 681.640 C 1066.514 685.532, 1069 687.160, 1069 690.616 C 1069 700.173, 1041.384 701.723, 1037.139 692.405 C 1036.512 691.030, 1036 689.196, 1036 688.328 C 1036 687.094, 1035.319 686.886, 1032.875 687.375 C 1031.156 687.719, 1029.356 688, 1028.875 688 C 1027.006 688, 1028.105 693.971, 1030.496 696.813 C 1033.962 700.932, 1040.064 703.128, 1049.772 703.753 C 1065.851 704.787, 1078 699.005, 1078 690.320 C 1078 683.821, 1074.720 681.302, 1060 676.500 C 1049.465 673.063, 1046.345 671.512, 1045.033 669.062 C 1043.666 666.507, 1044.667 664.224, 1047.884 662.560 C 1057.173 657.756, 1074 661.456, 1074 668.302 C 1074 670.038, 1074.470 670.180, 1078.212 669.582 C 1080.529 669.212, 1082.656 668.677, 1082.939 668.395 C 1083.221 668.112, 1082.563 666.220, 1081.476 664.191 C 1078.419 658.482, 1071.774 655.649, 1060.527 655.262 C 1053.523 655.021, 1050.270 655.389, 1046.011 656.903 M 1120.746 656.022 C 1106.162 659.705, 1096.680 670.442, 1096.671 683.282 C 1096.665 691.184, 1100.221 696.361, 1108.500 700.500 C 1113.968 703.234, 1115.386 703.500, 1124.500 703.497 C 1133.612 703.495, 1135.083 703.219, 1141.068 700.385 C 1147.753 697.220, 1154.061 691.695, 1156.617 686.767 C 1158.501 683.134, 1159.412 676.012, 1158.569 671.516 C 1157.682 666.788, 1151.734 660.227, 1146.046 657.703 C 1140.936 655.435, 1126.792 654.496, 1120.746 656.022 M 1194.312 657.016 C 1186.310 659.626, 1177.912 667.048, 1175.334 673.788 C 1173.127 679.558, 1173.113 688.402, 1175.305 692.631 C 1179.421 700.571, 1189.242 704.612, 1202.254 703.720 C 1212.062 703.048, 1219.315 699.721, 1224.964 693.303 C 1227.184 690.782, 1229 688.332, 1229 687.859 C 1229 687.387, 1227.088 687, 1224.750 687 C 1221.091 687, 1220.111 687.487, 1217.705 690.502 C 1209.656 700.591, 1191.844 701.390, 1184.828 691.977 C 1178.640 683.674, 1183.918 669.160, 1195.241 663.340 C 1199.434 661.185, 1201.918 660.627, 1207.500 660.589 C 1215.658 660.534, 1220.151 662.458, 1222.509 667.017 C 1223.828 669.569, 1224.626 670, 1228.026 670 C 1232.691 670, 1233.028 668.821, 1229.750 663.957 C 1224.312 655.888, 1207.728 652.639, 1194.312 657.016 M 1452 656.528 C 1435.473 661.069, 1425.444 676.400, 1430.440 689.483 C 1434.807 700.917, 1451.601 706.881, 1467.500 702.644 C 1493.583 695.693, 1500.681 667.520, 1478.757 657.960 C 1472.032 655.027, 1459.835 654.374, 1452 656.528 M 244.447 660.250 C 245.046 664.723, 248 699.061, 248 701.550 C 248 702.616, 249.275 703, 252.815 703 L 257.629 703 269.565 686.847 C 276.129 677.963, 282.137 669.525, 282.915 668.097 C 283.693 666.669, 284.444 665.950, 284.584 666.500 C 284.724 667.050, 285.388 675.509, 286.058 685.297 L 287.278 703.095 292.345 702.797 L 297.413 702.500 308.731 686.500 C 314.957 677.700, 322.316 667.237, 325.085 663.250 L 330.120 656 325.633 656 L 321.147 656 313.189 667.293 C 308.812 673.504, 302.929 682.111, 300.115 686.421 C 296.792 691.512, 295 693.530, 295 692.183 C 295 689.148, 293.073 665.211, 292.429 660.250 L 291.877 656 287.420 656 L 282.962 656 272.499 670.250 C 266.744 678.087, 260.518 686.656, 258.664 689.291 L 255.292 694.083 254.606 678.291 C 254.229 669.606, 253.664 661.038, 253.349 659.250 C 252.805 656.156, 252.564 656, 248.327 656 L 243.877 656 244.447 660.250 M 343 656.259 C 343 656.462, 340.075 666.696, 336.500 679 C 332.925 691.304, 330 701.764, 330 702.243 C 330 702.723, 331.886 702.977, 334.191 702.807 L 338.381 702.500 343.106 686 C 345.704 676.925, 348.106 668.150, 348.443 666.500 C 349.042 663.569, 349.145 663.661, 352.900 670.500 C 355.013 674.350, 360.086 683.125, 364.173 690 L 371.602 702.500 376.243 702.802 L 380.884 703.105 382.875 696.302 C 383.970 692.561, 386.922 682.479, 389.433 673.897 C 391.945 665.316, 394 657.752, 394 657.090 C 394 656.294, 392.589 655.989, 389.845 656.193 L 385.691 656.500 381.004 673 C 378.426 682.075, 375.998 690.793, 375.608 692.374 C 374.927 695.136, 374.752 694.960, 371.120 687.874 C 369.042 683.818, 363.960 675.100, 359.828 668.500 L 352.315 656.500 347.658 656.195 C 345.096 656.028, 343 656.056, 343 656.259 M 414.671 656.750 C 414.425 657.163, 411.464 667.050, 408.091 678.722 C 404.718 690.395, 401.695 700.632, 401.372 701.472 C 400.856 702.818, 403.824 703, 426.276 703 L 451.767 703 452.245 700.500 L 452.723 698 432.361 698 C 418.375 698, 412 697.660, 412 696.914 C 412 696.316, 412.969 692.491, 414.154 688.414 L 416.308 681 435.047 681 C 454.392 681, 455 680.876, 455 676.918 C 455 676.394, 447.042 676, 436.433 676 C 419.221 676, 417.903 675.872, 418.376 674.250 C 418.657 673.288, 419.619 669.913, 420.514 666.750 L 422.142 661 441.464 661 C 461.430 661, 462 660.887, 462 656.918 C 462 655.817, 415.326 655.651, 414.671 656.750 M 481.671 656.750 C 481.425 657.163, 478.464 667.050, 475.091 678.722 C 471.718 690.395, 468.695 700.632, 468.372 701.472 C 467.899 702.705, 468.667 703, 472.351 703 L 476.915 703 479.019 695.750 C 480.176 691.763, 481.580 687.038, 482.139 685.250 L 483.155 682 490.610 682 C 500.892 682, 504.118 683.568, 508.826 690.852 C 510.947 694.133, 513.258 698.209, 513.962 699.909 C 515.146 702.766, 515.611 703, 520.121 703 C 522.805 703, 525 702.689, 525 702.308 C 525 700.271, 516.479 687.716, 513.340 685.129 L 509.686 682.117 512.593 681.458 C 521.191 679.510, 523.326 678.653, 526.482 675.882 C 533.044 670.120, 532.112 661.318, 524.576 657.895 C 521.069 656.302, 517.821 656.041, 501.309 656.022 C 490.754 656.010, 481.917 656.337, 481.671 656.750 M 577.676 678.837 C 574.004 691.461, 571 702.062, 571 702.395 C 571 702.728, 572.976 703, 575.392 703 C 579.354 703, 579.848 702.731, 580.449 700.250 C 580.815 698.737, 581.991 694.518, 583.063 690.874 L 585.011 684.247 599.756 683.724 C 617.039 683.111, 621.160 682.075, 626.145 677.091 C 632.422 670.813, 632.237 663.450, 625.680 658.590 C 623.088 656.669, 621.300 656.475, 603.606 656.192 L 584.353 655.885 577.676 678.837 M 646.080 677.750 C 642.596 689.712, 639.525 700.288, 639.256 701.250 C 638.843 702.728, 639.459 703, 643.219 703 L 647.672 703 653.988 681.250 C 657.461 669.288, 660.513 658.712, 660.768 657.750 C 661.160 656.278, 660.534 656, 656.824 656 L 652.415 656 646.080 677.750 M 681.514 657.250 C 681.282 657.938, 678.194 668.513, 674.653 680.750 L 668.214 703 689.639 703 C 710.944 703, 711.069 702.987, 711.898 700.750 L 712.731 698.500 695.866 698.226 C 686.589 698.076, 679.012 697.626, 679.026 697.226 C 679.041 696.827, 681.684 687.388, 684.900 676.250 L 690.747 656 686.342 656 C 683.710 656, 681.767 656.503, 681.514 657.250 M 810.607 657.582 C 809.397 660.734, 810.167 661, 820.500 661 C 826.275 661, 830.985 661.337, 830.967 661.750 C 830.948 662.163, 828.299 671.500, 825.080 682.500 L 819.226 702.500 823.217 702.813 C 825.412 702.985, 827.425 702.908, 827.690 702.643 C 828.116 702.217, 836.381 674.683, 839.064 664.750 L 840.077 661 851.039 661 C 857.067 661, 862 660.587, 862 660.082 C 862 659.577, 862.273 658.452, 862.607 657.582 C 863.151 656.164, 860.512 656, 837.214 656 C 814.428 656, 811.139 656.196, 810.607 657.582 M 909.500 672.710 C 902.350 681.861, 894.105 692.420, 891.178 696.174 L 885.856 703 890.742 703 C 895.586 703, 895.671 702.943, 900.538 696.500 L 905.448 690 919.115 690 L 932.783 690 934.075 696.500 L 935.367 703 939.800 703 C 943.518 703, 944.164 702.718, 943.806 701.250 C 943.570 700.288, 941.155 689.714, 938.439 677.753 L 933.500 656.006 928 656.039 L 922.500 656.072 909.500 672.710 M 1255.514 657.250 C 1255.281 657.938, 1252.355 667.950, 1249.012 679.500 C 1245.669 691.050, 1242.729 701.087, 1242.478 701.804 C 1242.136 702.781, 1243.181 703.032, 1246.635 702.804 L 1251.249 702.500 1257.996 679.250 L 1264.743 656 1260.340 656 C 1257.710 656, 1255.767 656.503, 1255.514 657.250 M 1285.115 678.991 C 1275.152 691.636, 1267 702.211, 1267 702.491 C 1267 702.771, 1268.986 703, 1271.414 703 C 1275.649 703, 1276.037 702.737, 1281 696.500 L 1286.172 690 1299.548 690 L 1312.923 690 1313.861 693.750 C 1314.377 695.813, 1315.078 698.737, 1315.419 700.250 C 1315.979 702.735, 1316.458 703, 1320.403 703 L 1324.768 703 1322.496 693.250 C 1321.247 687.888, 1318.785 677.313, 1317.026 669.750 L 1313.828 656 1308.529 656 L 1303.230 656 1285.115 678.991 M 1340.667 656.667 C 1340.300 657.033, 1340 658.158, 1340 659.167 C 1340 660.829, 1340.987 661, 1350.567 661 C 1360.174 661, 1361.085 661.159, 1360.585 662.750 C 1359.520 666.141, 1349 702.432, 1349 702.714 C 1349 702.871, 1350.967 703, 1353.370 703 L 1357.741 703 1360.879 692.250 C 1362.605 686.337, 1365.293 677, 1366.852 671.500 L 1369.687 661.500 1380.482 661 C 1390.543 660.534, 1391.334 660.347, 1392.106 658.250 L 1392.936 656 1367.134 656 C 1352.944 656, 1341.033 656.300, 1340.667 656.667 M 1402.110 678.253 C 1398.595 690.489, 1395.510 701.063, 1395.253 701.750 C 1394.922 702.637, 1396.125 703, 1399.393 703 C 1401.927 703, 1404 702.849, 1404 702.665 C 1404 702.481, 1406.925 692.247, 1410.500 679.923 C 1414.075 667.599, 1417 657.175, 1417 656.758 C 1417 656.341, 1415.088 656.001, 1412.750 656.003 L 1408.500 656.005 1402.110 678.253 M 1515.514 657.250 C 1515.282 657.938, 1512.194 668.513, 1508.653 680.750 L 1502.214 703 1506.506 703 L 1510.798 703 1512.872 696.250 C 1514.012 692.538, 1516.420 683.991, 1518.223 677.257 C 1520.025 670.523, 1521.789 665.011, 1522.143 665.007 C 1522.497 665.003, 1523.083 665.774, 1523.446 666.720 C 1523.809 667.666, 1528.695 676.208, 1534.303 685.701 L 1544.500 702.962 1549.086 702.981 L 1553.672 703 1559.988 681.250 C 1563.461 669.288, 1566.513 658.712, 1566.768 657.750 C 1567.159 656.279, 1566.535 656, 1562.849 656 L 1558.465 656 1553.038 675.457 L 1547.610 694.914 1543.476 687.207 C 1541.202 682.968, 1536.077 674.212, 1532.087 667.750 L 1524.832 656 1520.385 656 C 1517.719 656, 1515.768 656.501, 1515.514 657.250 M 192.734 661.041 C 180.663 664.037, 172.995 672.656, 173.004 683.218 C 173.009 688.717, 175.856 693.376, 180.734 695.864 C 193.218 702.233, 209.886 696.885, 215.564 684.690 C 218.394 678.611, 218.630 674.130, 216.370 669.367 C 213.253 662.800, 201.842 658.780, 192.734 661.041 M 756.672 661.433 C 739.786 665.972, 732.482 684.655, 743.854 694.224 C 748.161 697.848, 756.478 699.492, 763.204 698.050 C 775.962 695.314, 783.873 685.438, 782.741 673.661 C 782.324 669.319, 781.703 668.082, 778.584 665.386 C 775.007 662.294, 768.444 659.932, 763.807 660.067 C 762.538 660.105, 759.328 660.719, 756.672 661.433 M 1123.951 661.314 C 1111.354 664.845, 1103.381 675.555, 1105.387 686.250 C 1107.325 696.580, 1122.705 701.782, 1135.501 696.435 C 1147.164 691.562, 1153.521 677.287, 1148.035 668.290 C 1144.227 662.044, 1132.974 658.784, 1123.951 661.314 M 1457.734 661.041 C 1445.663 664.037, 1437.995 672.656, 1438.004 683.218 C 1438.009 688.717, 1440.856 693.376, 1445.734 695.864 C 1458.218 702.233, 1474.886 696.885, 1480.564 684.690 C 1483.394 678.611, 1483.630 674.130, 1481.370 669.367 C 1478.253 662.800, 1466.842 658.780, 1457.734 661.041 M 487.634 666.250 C 486.805 669.138, 485.825 672.737, 485.455 674.250 L 484.783 677 496.642 676.976 C 515.513 676.938, 521.500 674.637, 521.500 667.422 C 521.500 661.772, 519.343 661.033, 502.821 661.015 L 489.142 661 487.634 666.250 M 591.670 661.750 C 591.139 662.638, 587 677.318, 587 678.314 C 587 679.272, 599.123 679.112, 607.408 678.045 C 611.457 677.523, 615.389 676.358, 616.908 675.230 C 622.718 670.916, 623.494 664.458, 618.477 662.171 C 615.645 660.881, 592.407 660.516, 591.670 661.750 M 918.211 673.425 L 909.921 684.500 920.091 684.786 C 925.684 684.944, 930.453 684.881, 930.687 684.646 C 931.077 684.256, 927.236 662.782, 926.722 662.481 C 926.600 662.409, 922.770 667.334, 918.211 673.425 M 1299.217 672.831 C 1294.698 678.842, 1291 684.039, 1291 684.380 C 1291 685.145, 1310.454 685.213, 1311.216 684.451 C 1311.518 684.149, 1311.323 682.011, 1310.783 679.701 C 1310.243 677.390, 1309.268 672.440, 1308.617 668.701 L 1307.434 661.902 1299.217 672.831" stroke="none" fill="#061623" fill-rule="evenodd"/><path d="M 397.427 53.965 C 385.972 56.969, 378.796 60.822, 354.500 77.013 C 341.850 85.443, 327.900 94.017, 323.500 96.066 C 319.100 98.114, 309.650 101.234, 302.500 103 C 282.529 107.930, 278.706 110.114, 263.954 125.008 C 257.054 131.976, 249.404 138.838, 246.954 140.258 C 244.504 141.678, 226.075 150.119, 206 159.015 C 160.097 179.358, 151.407 183.803, 143.832 190.816 C 129.291 204.279, 125.850 225.716, 135.215 244.500 C 138 250.086, 144.431 256.490, 151.500 260.717 C 165.701 269.210, 166.189 271.797, 155.973 284.464 C 137.795 307.002, 130.463 327.109, 130.616 354 C 130.727 373.603, 133.831 385.967, 143.544 405.500 C 156.822 432.200, 184.831 461.639, 220.886 486.791 C 232.403 494.825, 237 499.294, 237 502.457 C 237 507.504, 232.550 510.577, 205.703 524.071 C 178.881 537.553, 165.944 545.275, 160.315 551.167 C 155.125 556.597, 150.225 565.715, 148.559 573.041 C 145.725 585.501, 146.779 594.633, 152.628 608.299 C 156.084 616.373, 156.876 622.494, 154.935 626.121 C 154.350 627.215, 150.320 631.979, 145.980 636.707 C 132.730 651.140, 127.711 663.391, 127.628 681.500 C 127.557 696.758, 130.821 707.355, 138.861 717.978 C 146.277 727.775, 156.663 734.661, 170.433 738.909 C 180.902 742.139, 192.074 742.552, 211.960 740.446 C 227.343 738.817, 231.401 738.746, 248.871 739.804 C 262.028 740.601, 282.678 740.785, 311.500 740.361 C 345.899 739.855, 359 740.049, 377 741.330 C 421.654 744.509, 453.503 744.369, 476 740.897 C 486.113 739.336, 536.156 737.532, 560.113 737.865 C 580.482 738.148, 582.342 738.017, 592.443 735.583 C 607.509 731.952, 614.515 732.133, 627.531 736.487 C 646.177 742.726, 643.554 742.589, 735 742.087 C 759.270 741.954, 766.805 741.562, 777.500 739.875 C 787.703 738.266, 794.799 737.850, 810.479 737.939 C 829.700 738.048, 830.965 737.931, 843.790 734.858 L 857.121 731.663 867.811 734.442 C 884.599 738.806, 885.456 738.910, 904.828 738.956 C 914.908 738.980, 928.408 739.457, 934.828 740.016 C 959.436 742.157, 978.258 742.758, 993.684 741.895 C 1017.876 740.540, 1021.185 740.507, 1040.057 741.433 C 1054.371 742.135, 1060.557 741.973, 1073.557 740.556 C 1088.382 738.941, 1090.508 738.930, 1103.879 740.409 C 1122.566 742.477, 1127.592 742.418, 1146.095 739.920 C 1162.232 737.742, 1162.471 737.748, 1186.500 740.990 C 1198.971 742.673, 1264.511 742.221, 1281.701 740.334 C 1295.103 738.863, 1298.949 738.818, 1314.201 739.958 C 1324.296 740.713, 1337.122 740.998, 1345 740.642 C 1385.823 738.801, 1417.208 738.760, 1435.859 740.525 C 1450.398 741.901, 1458.571 742.132, 1473 741.572 C 1483.175 741.178, 1505.450 740.482, 1522.500 740.026 C 1555.517 739.144, 1560.208 738.502, 1570.665 733.437 C 1585.893 726.062, 1598.903 701.346, 1602.118 673.682 C 1605.393 645.514, 1595.406 627.996, 1572.267 621.319 C 1567.470 619.935, 1560.611 619.611, 1531.500 619.395 C 1512.250 619.251, 1489.588 618.586, 1481.139 617.915 C 1471.427 617.145, 1458.925 616.939, 1447.139 617.357 C 1434.313 617.811, 1420.703 617.523, 1403.500 616.432 C 1382.086 615.075, 1374.622 615.022, 1351.463 616.064 C 1336.592 616.734, 1320.706 617.066, 1316.161 616.803 C 1301.298 615.943, 1301.726 611.964, 1318.006 599.642 C 1334.267 587.334, 1336.646 586.463, 1359.430 584.465 C 1368.819 583.642, 1379.425 582.310, 1383 581.505 C 1395.199 578.758, 1405.461 578.550, 1417 580.818 C 1433.280 584.017, 1433.251 584.015, 1473.181 584.482 C 1513.627 584.954, 1522.867 584.287, 1535.978 579.947 C 1554.415 573.844, 1570.272 561.412, 1577.821 547.142 C 1585.527 532.577, 1590.010 513.201, 1589.985 494.574 C 1589.967 480.550, 1588.313 473.583, 1581.819 460.174 C 1574.802 445.684, 1574.804 442.586, 1581.844 427.248 C 1587.111 415.773, 1600.653 371.541, 1603.576 356.268 C 1605.743 344.940, 1605.455 328.287, 1602.963 320.890 C 1597.731 305.360, 1585.471 294.831, 1569.500 292.153 C 1559.947 290.552, 1491.429 290.873, 1479.574 292.575 C 1466.173 294.499, 1460.677 294.377, 1446 291.832 C 1429.815 289.025, 1412.297 288.890, 1398 291.462 C 1384.289 293.929, 1372.684 293.948, 1355.500 291.531 C 1343.036 289.778, 1335.903 289.565, 1290.500 289.585 C 1214.630 289.618, 1187.300 289.958, 1168.993 291.093 C 1155.705 291.918, 1149.015 291.813, 1134.693 290.559 C 1122.022 289.449, 1104.587 289, 1074.131 289 C 1020.724 289, 1022.922 289.466, 1005.133 274.362 C 994.594 265.414, 983.672 259.749, 970.673 256.490 C 930.853 246.506, 884.821 259.966, 856.813 289.785 C 848.478 298.658, 841.255 309.288, 835.420 321.265 C 831.246 329.833, 829.507 334.826, 822.539 358.248 C 819.437 368.676, 817.040 371.118, 812.326 368.651 C 808.120 366.449, 782.201 342.289, 780.484 338.970 C 778.566 335.260, 778.604 331.691, 780.604 327.700 C 781.486 325.940, 803.266 303.350, 829.004 277.500 C 861.086 245.278, 877.093 228.479, 879.914 224.072 C 887.513 212.203, 890.398 197.310, 887.634 184.224 C 883.839 166.258, 871.559 154.297, 851.314 148.848 C 841.018 146.076, 820.791 145.831, 810.546 148.354 C 801.945 150.471, 787.507 157.318, 779.392 163.128 C 776.033 165.532, 746.442 188.875, 713.634 215 C 680.825 241.125, 651.174 264.075, 647.741 266 C 642.121 269.152, 640.738 269.500, 633.846 269.500 C 623.113 269.500, 620.441 267.243, 612.645 251.598 C 600.870 227.968, 583.815 215.495, 555 209.440 C 548.367 208.047, 541.229 207.620, 522.500 207.497 C 498.790 207.341, 498.361 207.300, 487 204.139 C 477.471 201.487, 472.644 200.779, 458.836 200.010 C 449.671 199.499, 440.896 198.774, 439.336 198.398 C 433.906 197.089, 427.393 193.150, 423.281 188.689 C 415.166 179.886, 412.726 171.258, 416.366 164.246 C 417.296 162.456, 426.324 152.781, 436.429 142.746 C 455.084 124.219, 457.276 121.320, 461.156 110.048 C 470.136 83.961, 456.408 58.720, 430.201 53.130 C 422.060 51.394, 405.636 51.812, 397.427 53.965 M 367.500 116.604 C 334.613 138.884, 325.066 144.903, 323.500 144.343 C 321.136 143.499, 295 142.651, 295 143.419 C 295 143.709, 297.094 147.339, 299.653 151.486 C 302.213 155.634, 304.125 159.201, 303.903 159.414 C 303.490 159.812, 170.581 218.941, 164.782 221.307 L 161.565 222.620 169.033 226.742 L 176.501 230.865 247.366 206.381 C 286.341 192.915, 318.422 182.089, 318.657 182.324 C 318.892 182.559, 329.185 199.105, 341.530 219.093 C 356.966 244.086, 363.589 255.645, 362.738 256.109 C 362.057 256.481, 357.900 257.779, 353.500 258.995 C 341.939 262.190, 323.043 269.499, 311.500 275.240 C 284.215 288.810, 267.855 304.678, 261.287 323.942 C 258.513 332.081, 258.187 347.051, 260.581 356.356 C 270.006 392.975, 314.997 436.533, 378.222 470.249 C 384.670 473.687, 389.947 476.725, 389.951 477 C 389.954 477.275, 343.504 500.675, 286.728 529 C 196.488 574.020, 183.325 580.869, 182.109 583.431 C 180.796 586.196, 180.871 586.486, 183.428 588.525 C 190.139 593.876, 202.127 600.260, 206.359 600.737 C 211.640 601.332, 214.783 600.354, 241 589.960 C 278.718 575.007, 400.376 523.607, 434 508.420 C 448.430 501.902, 444.718 501.687, 469.500 510.478 C 501.180 521.716, 533.662 530.605, 566 536.885 C 585.169 540.608, 601.730 543.257, 603.063 542.812 C 603.616 542.628, 596.290 540.284, 586.784 537.604 C 552.158 527.841, 510.960 513.366, 481.622 500.657 C 468.884 495.138, 467.271 494.307, 468.083 493.677 C 468.945 493.008, 566.020 450.902, 570.167 449.399 C 572.550 448.534, 577.875 446.806, 582 445.559 C 589.172 443.389, 589.893 443.350, 598.500 444.668 C 603.450 445.425, 613.800 445.984, 621.500 445.908 L 635.500 445.771 650.500 451.303 C 695.465 467.885, 736.945 477.643, 767.031 478.716 C 790.314 479.546, 804.666 476.007, 813.958 467.145 C 827.398 454.327, 817.635 432.455, 783.073 397.954 C 760.969 375.888, 731.315 352.705, 714.131 344.057 L 707.762 340.851 780.934 268.286 C 862.611 187.286, 858.020 192.739, 848.512 188.029 C 844.190 185.888, 841.857 185.509, 831.012 185.188 C 823.886 184.976, 817.424 185.255, 816 185.835 C 814.625 186.395, 776.213 216.528, 730.640 252.798 C 653.635 314.084, 647.594 318.680, 645.140 317.847 C 643.688 317.353, 631.700 314.047, 618.500 310.499 C 590.956 303.095, 573.916 298.249, 573.316 297.650 C 573.088 297.421, 574.002 295.612, 575.348 293.629 C 580.462 286.093, 581.280 273.389, 577.170 265.333 C 570.839 252.923, 555.636 246.757, 531 246.606 C 517.286 246.522, 507.999 248.930, 500.783 254.440 C 496.179 257.955, 492 264.768, 492 268.759 C 492 271.364, 488.132 274.354, 486.507 273.006 C 485.786 272.407, 483.052 272.776, 478.939 274.027 C 472.277 276.053, 463.858 276.362, 449.187 275.119 L 441.875 274.500 431.901 262.500 L 421.927 250.500 424.714 249.315 C 426.246 248.663, 434.925 246.327, 444 244.123 C 453.075 241.919, 461.400 239.885, 462.500 239.602 C 468.081 238.168, 426.785 242.851, 419.435 244.486 C 417.735 244.864, 411.726 238.142, 385.435 206.451 C 367.871 185.279, 353.386 167.624, 353.247 167.218 C 353.107 166.812, 370.561 149.888, 392.033 129.610 C 413.505 109.331, 430.913 92.579, 430.718 92.384 C 430.313 91.979, 411.117 87.960, 410.140 88.076 C 409.788 88.117, 390.600 100.955, 367.500 116.604 M 365 274.930 C 333.487 293.933, 315.226 322.880, 317.359 350.454 C 319.060 372.458, 328.901 392.223, 349.862 415.736 C 361.670 428.983, 385.485 448.325, 405.347 460.802 L 413.787 466.103 456.246 444.881 L 498.705 423.658 494.103 420.211 C 487.313 415.125, 482.072 409.919, 469.729 396 C 463.632 389.125, 456.630 381.389, 454.167 378.809 L 449.691 374.117 445.896 376.053 C 435.388 381.414, 418.224 380.855, 406.630 374.774 C 395.488 368.931, 373.051 344.433, 373.009 338.066 C 372.989 334.963, 377.361 327.882, 381.150 324.881 C 383.346 323.142, 387.575 320.730, 390.547 319.522 L 395.950 317.326 392.841 314.413 C 387.117 309.049, 377.719 296.560, 374.846 290.500 C 371.515 283.473, 371.283 280.107, 373.905 276.868 C 375.287 275.162, 375.552 274.032, 374.870 272.758 C 373.530 270.254, 372.310 270.523, 365 274.930 M 934.500 293.004 C 914.608 295.217, 899.633 302.425, 886.388 316.161 C 876.136 326.793, 870.368 336.841, 865.156 353.148 C 858.921 372.659, 858.819 386.627, 864.817 399.402 C 868.579 407.412, 871.722 410.986, 878.017 414.413 C 885.487 418.478, 891.970 419.965, 905 420.602 C 936.908 422.159, 958.723 410.225, 975.841 381.845 L 978.046 378.190 962.841 373.110 C 954.479 370.316, 947.559 368.136, 947.465 368.265 C 947.370 368.394, 946.003 370.750, 944.428 373.500 C 940.103 381.046, 932.344 388.354, 926.563 390.324 C 915.758 394.005, 903.819 391.353, 900.593 384.555 C 898.299 379.721, 898.618 370.772, 901.490 359.378 C 907.433 335.801, 918.877 322.728, 934.842 321.281 C 945.405 320.323, 953.987 326.357, 953.996 334.750 C 953.999 336.859, 954.489 338, 955.393 338 C 956.158 338, 964.146 336.425, 973.142 334.500 C 982.138 332.575, 989.663 331, 989.865 331 C 990.768 331, 988.609 319.030, 986.866 314.370 C 984.525 308.115, 978.152 300.628, 972.877 297.937 C 964.370 293.597, 948.039 291.498, 934.500 293.004 M 1407.293 329.442 C 1384.769 334.577, 1367.976 352.228, 1362.048 377 C 1358.391 392.281, 1359.969 402.756, 1367.090 410.482 C 1373.176 417.085, 1379.251 419.262, 1393 419.770 C 1413.252 420.518, 1425.169 416.111, 1438.040 403.114 C 1449.354 391.689, 1455.744 377.034, 1456.729 360.251 C 1457.166 352.817, 1456.921 350.081, 1455.480 346.310 C 1452.868 339.468, 1446.912 333.490, 1440.157 330.929 C 1432.826 328.151, 1416.249 327.400, 1407.293 329.442 M 1007.465 331.250 C 1007.205 331.938, 1001.431 351.962, 994.634 375.750 L 982.275 419 995.935 419 L 1009.594 419 1021.928 375.750 C 1028.712 351.962, 1034.477 331.938, 1034.738 331.250 C 1035.104 330.288, 1032.073 330, 1021.576 330 C 1011.584 330, 1007.811 330.334, 1007.465 331.250 M 1051.074 338.750 C 1049.794 343.563, 1048.526 348.288, 1048.257 349.250 C 1047.807 350.855, 1048.895 351, 1061.383 351 C 1071.683 351, 1075 351.308, 1075 352.263 C 1075 352.957, 1070.786 368.257, 1065.636 386.263 L 1056.272 419 1069.938 419 L 1083.605 419 1091.932 389.750 C 1096.512 373.663, 1100.894 358.363, 1101.669 355.750 L 1103.077 351 1116.996 351 L 1130.915 351 1133.012 343.750 C 1134.165 339.762, 1135.534 335.195, 1136.054 333.601 C 1136.574 332.006, 1137 330.544, 1137 330.351 C 1137 330.158, 1118.190 330, 1095.201 330 L 1053.401 330 1051.074 338.750 M 1161.887 341.755 C 1157.699 348.215, 1144.550 368.238, 1132.666 386.250 L 1111.058 419 1125.010 419 L 1138.963 419 1143.232 411.511 L 1147.500 404.021 1163.250 404.011 L 1179 404 1179 411.500 L 1179 419 1193.481 419 L 1207.962 419 1207.442 414.750 C 1206.946 410.695, 1200.003 332.312, 1200.001 330.750 C 1200 330.337, 1193.138 330.002, 1184.750 330.005 L 1169.500 330.010 1161.887 341.755 M 1226.523 331.250 C 1226.295 331.938, 1225.155 335.875, 1223.990 340 C 1222.824 344.125, 1221.644 348.288, 1221.368 349.250 C 1220.907 350.855, 1221.986 351, 1234.433 351 C 1245.732 351, 1248 351.247, 1248 352.477 C 1248 353.289, 1244.211 367.352, 1239.580 383.727 C 1234.948 400.102, 1230.850 414.738, 1230.471 416.250 L 1229.783 419 1243.353 419 L 1256.923 419 1258.061 414.750 C 1259.165 410.626, 1274.556 356.239, 1275.599 352.777 C 1276.053 351.270, 1277.889 351.020, 1290.275 350.777 L 1304.432 350.500 1306.662 342.500 C 1307.888 338.100, 1309.150 333.488, 1309.465 332.250 L 1310.038 330 1268.488 330 C 1236.135 330, 1226.846 330.277, 1226.523 331.250 M 1328.515 331.250 C 1327.484 334.300, 1304 417.705, 1304 418.316 C 1304 418.692, 1310.045 419, 1317.433 419 C 1329.360 419, 1330.924 418.804, 1331.387 417.250 C 1333.819 409.085, 1356 330.934, 1356 330.528 C 1356 330.237, 1349.911 330, 1342.469 330 C 1332.536 330, 1328.825 330.332, 1328.515 331.250 M 1484.504 331.250 C 1483.159 335.131, 1460 417.122, 1460 418.002 C 1460 418.705, 1464.249 418.966, 1472.649 418.780 L 1485.297 418.500 1492.113 394.620 C 1495.861 381.485, 1499.064 370.603, 1499.230 370.437 C 1499.396 370.271, 1503.800 381.131, 1509.016 394.570 L 1518.500 419.005 1531.463 418.753 L 1544.426 418.500 1557.075 374.250 L 1569.725 330 1556.905 330 L 1544.085 330 1542.099 336.750 C 1541.008 340.462, 1538.014 350.925, 1535.447 360 C 1532.879 369.075, 1530.487 376.820, 1530.129 377.210 C 1529.772 377.601, 1525.253 367.138, 1520.088 353.960 L 1510.697 330 1497.817 330 C 1488.411 330, 1484.820 330.337, 1484.504 331.250 M 1407 350.538 C 1399.258 354.006, 1392.770 363.382, 1389.571 375.724 C 1386.426 387.862, 1388.009 395.353, 1394.357 398.365 C 1400.949 401.493, 1409.456 399.869, 1416.051 394.224 C 1423.092 388.198, 1429 373.545, 1429 362.112 C 1429 356.831, 1428.623 355.610, 1426.132 352.822 C 1423.557 349.939, 1422.612 349.579, 1416.882 349.291 C 1412.627 349.077, 1409.333 349.493, 1407 350.538 M 1168.349 368.860 L 1159.198 384.500 1168.728 384.788 C 1173.969 384.946, 1178.464 384.869, 1178.716 384.617 C 1178.968 384.365, 1178.798 377.198, 1178.337 368.689 L 1177.500 353.220 1168.349 368.860 M 921.627 450.750 C 911.525 485.533, 903.342 512.272, 901.963 515 C 899.493 519.888, 896.123 522.723, 891.844 523.513 C 888.849 524.065, 887.785 523.785, 885.965 521.965 C 883.995 519.995, 883.812 519.068, 884.360 513.828 L 884.978 507.913 881.739 508.485 C 879.958 508.800, 873.608 509.684, 867.628 510.450 C 861.649 511.216, 856.323 512.277, 855.792 512.808 C 855.261 513.339, 854.793 517.312, 854.752 521.637 C 854.640 533.536, 859.118 540.540, 869 543.921 C 874.569 545.827, 889.105 546.435, 896.181 545.058 C 914.765 541.444, 926.929 529.925, 934.157 509.092 C 936.188 503.236, 952 450.459, 952 449.534 C 952 449.240, 945.280 449, 937.067 449 C 923.706 449, 922.081 449.184, 921.627 450.750 M 1074.491 455.324 C 1066.796 458.721, 1060.015 461.816, 1059.423 462.202 C 1058.830 462.588, 1057.528 465.605, 1056.529 468.905 L 1054.712 474.905 1049.651 475.203 L 1044.590 475.500 1041.817 485 C 1040.292 490.225, 1039.034 494.613, 1039.022 494.750 C 1039.010 494.887, 1041.206 495, 1043.902 495 L 1048.804 495 1044.380 509.750 C 1041.948 517.862, 1039.683 527.464, 1039.347 531.087 C 1038.768 537.338, 1038.884 537.839, 1041.619 540.890 C 1044.852 544.499, 1049.512 545.943, 1058 545.969 C 1063.393 545.985, 1076.032 544.301, 1076.879 543.454 C 1077.399 542.934, 1079.912 530.187, 1079.963 527.805 C 1079.994 526.382, 1079.077 526.141, 1074.250 526.305 C 1068.796 526.490, 1068.486 526.371, 1068.227 524 C 1068.078 522.625, 1069.678 515.650, 1071.784 508.500 L 1075.613 495.500 1083.057 495 L 1090.500 494.500 1092.628 487.945 C 1093.798 484.339, 1095.071 479.952, 1095.457 478.195 L 1096.159 475 1089.079 475 C 1085.186 475, 1082 474.748, 1082 474.440 C 1082 474.132, 1083.627 468.484, 1085.615 461.888 C 1087.603 455.293, 1089.062 449.728, 1088.856 449.523 C 1088.651 449.317, 1082.186 451.928, 1074.491 455.324 M 1149.740 495.701 C 1142.172 521.440, 1135.984 542.837, 1135.990 543.250 C 1135.995 543.663, 1142.678 544, 1150.839 544 L 1165.678 544 1168.967 532.750 C 1170.775 526.563, 1173.116 518.688, 1174.168 515.250 L 1176.080 509 1187.290 508.983 C 1212 508.944, 1225.958 501.988, 1233.967 485.718 C 1241.631 470.151, 1240.044 457.266, 1229.789 451.790 C 1225.624 449.566, 1224.605 449.491, 1194.500 449.201 L 1163.500 448.902 1149.740 495.701 M 1257.813 458.027 L 1255.262 467.055 1268.770 466.777 L 1282.278 466.500 1284.639 458.556 C 1285.938 454.187, 1287 450.249, 1287 449.806 C 1287 449.363, 1281.007 449, 1273.682 449 L 1260.363 449 1257.813 458.027 M 1291.376 496.500 L 1277.323 544 1290.912 543.984 L 1304.500 543.968 1317.796 498.734 C 1325.109 473.855, 1331.349 452.488, 1331.663 451.250 C 1332.233 449, 1332.232 449, 1318.831 449 L 1305.429 449 1291.376 496.500 M 1455.832 455.751 L 1441.163 462.296 1439.344 468.648 L 1437.525 475 1432.419 475 L 1427.314 475 1425.025 483.250 C 1423.767 487.788, 1422.519 492.288, 1422.252 493.250 C 1421.840 494.734, 1422.468 495, 1426.383 495 C 1428.923 495, 1431 495.349, 1431 495.776 C 1431 496.202, 1429.180 502.615, 1426.956 510.026 C 1424.613 517.833, 1422.672 526.654, 1422.341 531 C 1421.806 538.018, 1421.930 538.672, 1424.273 541.182 C 1427.931 545.098, 1433.821 546.355, 1445 545.606 C 1460.374 544.575, 1459.508 545.101, 1461.383 535.656 C 1462.273 531.170, 1463.001 527.159, 1463.001 526.741 C 1463 526.324, 1460.622 526.262, 1457.716 526.604 C 1449.399 527.581, 1449.262 526.925, 1454.182 509.692 L 1458.354 495.078 1465.888 494.789 L 1473.421 494.500 1475.543 487.500 C 1476.710 483.650, 1477.974 479.262, 1478.351 477.750 L 1479.038 475 1472.019 475 C 1467.863 475, 1465 474.579, 1465 473.968 C 1465 473.141, 1468.859 459.548, 1471.591 450.750 C 1471.890 449.788, 1471.767 449.046, 1471.317 449.103 C 1470.868 449.159, 1463.899 452.151, 1455.832 455.751 M 860.073 456.635 C 855.677 462.222, 859.044 469.841, 865.351 468.580 C 869.655 467.719, 872.333 464.773, 872.333 460.900 C 872.333 454.431, 864.068 451.556, 860.073 456.635 M 1186.025 475.126 C 1184.852 479.182, 1183.466 483.805, 1182.946 485.399 C 1182.426 486.994, 1182 488.456, 1182 488.649 C 1182 489.655, 1196.530 488.805, 1199.329 487.636 C 1204.251 485.579, 1208 480.582, 1208 476.078 C 1208 470.361, 1205.572 468.760, 1196.067 468.210 L 1188.158 467.752 1186.025 475.126 M 988.760 474.134 C 972.985 475.770, 960.181 483.495, 951.808 496.428 C 941.420 512.474, 941.371 531.390, 951.696 539.901 C 956.879 544.174, 962.810 545.505, 976.500 545.468 C 994.853 545.419, 1005.243 541.519, 1015.803 530.717 L 1020.106 526.316 1007.530 525.159 L 994.954 524.002 990.917 526.674 C 985.284 530.402, 977.533 531.012, 973.750 528.026 C 971.416 526.183, 971 525.110, 971 520.927 L 971 516 997.953 516 L 1024.906 516 1026.053 512.250 C 1026.684 510.188, 1027.434 504.591, 1027.719 499.812 C 1028.175 492.189, 1027.961 490.551, 1025.975 486.449 C 1021.248 476.683, 1007.631 472.177, 988.760 474.134 M 1372.500 474.142 C 1355.380 475.736, 1339.517 486.268, 1332.009 501.025 C 1328.345 508.228, 1326.800 514.157, 1326.800 521.021 C 1326.800 535.604, 1336.712 544.479, 1354.308 545.652 C 1370.238 546.713, 1383.748 541.976, 1394.966 531.393 C 1402.951 523.861, 1407.498 515.922, 1409.598 505.851 C 1412.500 491.934, 1407.539 481.065, 1396.097 476.271 C 1391.418 474.311, 1380.892 473.361, 1372.500 474.142 M 1515.722 474.168 C 1501.879 475.224, 1490.840 481.465, 1486.042 490.947 C 1479.728 503.425, 1484.647 512.279, 1499.693 515.520 C 1523.556 520.659, 1522.882 520.349, 1521.572 525.568 C 1520.199 531.041, 1507.005 533.096, 1502.455 528.545 C 1501.105 527.195, 1500 525.337, 1500 524.416 C 1500 522.923, 1499.003 522.815, 1490.750 523.418 C 1485.662 523.790, 1479.315 524.362, 1476.645 524.690 L 1471.790 525.286 1472.446 529.388 C 1473.868 538.278, 1479.341 542.983, 1490.528 544.931 C 1503.897 547.260, 1519.611 545.718, 1529.547 541.103 C 1537.229 537.536, 1541.915 533.414, 1545.220 527.319 C 1549.074 520.209, 1549.569 516.075, 1547.205 510.731 C 1544.497 504.609, 1538.274 501.668, 1523.252 499.412 C 1510.534 497.502, 1508.408 496.497, 1509.329 492.827 C 1510.107 489.727, 1513.763 488, 1519.547 488 C 1524.068 488, 1528 490.459, 1528 493.286 C 1528 494.330, 1530.369 494.344, 1540.594 493.359 C 1547.521 492.691, 1553.425 491.909, 1553.714 491.619 C 1555.199 490.134, 1552.523 483.288, 1549.131 479.896 C 1543.566 474.331, 1534.332 472.748, 1515.722 474.168 M 1252.484 476.250 C 1251.208 479.773, 1233 542.157, 1233 543.006 C 1233 543.615, 1238.134 543.996, 1246.250 543.991 L 1259.500 543.982 1265.269 524.241 C 1268.442 513.383, 1273.003 497.863, 1275.405 489.750 L 1279.770 475 1266.354 475 C 1256.529 475, 1252.816 475.335, 1252.484 476.250 M 594.500 488.461 C 592.300 489.291, 590.388 489.977, 590.250 489.985 C 590.112 489.993, 590 490.830, 590 491.845 C 590 494.867, 592.948 496.683, 604.684 500.887 C 624.427 507.959, 630.070 511.738, 638.474 523.515 C 643.658 530.780, 649.532 536.111, 655.580 539.039 C 668.551 545.318, 801.364 567.274, 816.762 565.685 C 822.697 565.073, 827 562.831, 827 560.353 C 827 559.472, 825.370 555.143, 823.379 550.731 C 820.936 545.320, 819.167 539.196, 817.941 531.906 C 816.942 525.963, 815.636 520.189, 815.039 519.073 C 812.671 514.649, 807.675 514.010, 794.757 516.482 C 764.403 522.290, 722.845 516.541, 664.500 498.463 C 635.002 489.322, 628.329 487.903, 612.500 487.398 C 601.597 487.050, 597.615 487.285, 594.500 488.461 M 987.777 489.947 C 983.873 491.188, 979.846 494.586, 977.255 498.826 C 976.020 500.847, 975.008 502.837, 975.005 503.250 C 975.002 503.663, 980.830 504, 987.955 504 L 1000.909 504 1001.521 500.740 C 1002.200 497.121, 1001.007 493.081, 998.693 491.161 C 996.678 489.488, 991.155 488.874, 987.777 489.947 M 1367.500 493.417 C 1360.689 496.458, 1355.184 505.879, 1354.259 516.080 C 1353.764 521.544, 1353.913 522.067, 1356.789 524.943 C 1360.446 528.600, 1364.295 528.911, 1369.982 526.009 C 1374.959 523.470, 1378.475 518.840, 1381.001 511.498 C 1383.809 503.337, 1383.654 497.563, 1380.545 494.455 C 1377.733 491.642, 1372.423 491.220, 1367.500 493.417 M 376.500 577.829 C 370.317 579.693, 318.009 601.495, 310 605.546 C 305.338 607.905, 301 611.457, 301 612.917 C 301 615.940, 304.634 616.426, 332.353 617.110 C 347.834 617.492, 362.300 618.109, 364.500 618.482 C 366.700 618.855, 378.625 618.396, 391 617.462 C 405.869 616.340, 424.183 615.789, 445 615.837 C 473.925 615.905, 492.938 615.057, 499.510 613.408 C 503.338 612.447, 502.255 609.875, 496.903 607.217 C 494.374 605.962, 483.349 602.226, 472.403 598.916 C 461.456 595.605, 441.475 589.256, 428 584.807 C 404.618 577.085, 403.021 576.701, 393 576.368 C 384.964 576.102, 381.092 576.445, 376.500 577.829 M 187 656.543 C 179.931 658.506, 171.718 663.958, 168.498 668.824 C 167.107 670.926, 165.442 675.158, 164.798 678.228 C 163.198 685.855, 164.833 691.176, 170.434 696.571 C 177.382 703.262, 190.708 705.786, 202.500 702.644 C 228.583 695.693, 235.681 667.520, 213.757 657.960 C 207.008 655.017, 194.821 654.372, 187 656.543 M 753.734 656.088 C 744.830 658.186, 735.038 665.534, 731.866 672.500 C 729.344 678.036, 729.427 686.956, 732.047 692.091 C 739.065 705.849, 765.919 707.971, 781.736 696.017 C 794.261 686.550, 795.449 668.434, 784.062 660.543 C 776.745 655.472, 764.182 653.627, 753.734 656.088 M 981.718 656.092 C 970.048 658.839, 965.260 667.704, 972.029 674.027 C 975.076 676.873, 976.886 677.688, 991.411 682.745 C 1000.509 685.913, 1004.013 689.239, 1002.072 692.865 C 998.716 699.136, 981.450 700.800, 973.728 695.596 C 971.897 694.362, 970.165 692.071, 969.617 690.159 C 968.845 687.468, 968.281 686.957, 966.584 687.413 C 965.438 687.721, 963.712 687.979, 962.750 687.986 C 960.358 688.005, 960.488 691.648, 963.030 695.818 C 965.794 700.351, 972.353 703.076, 982.106 703.745 C 995.995 704.697, 1006.189 701.266, 1010.279 694.262 C 1011.902 691.482, 1012 690.531, 1010.980 687.438 C 1009.473 682.872, 1006.286 680.937, 992.949 676.487 C 980.148 672.216, 978 670.849, 978 666.969 C 978 662.741, 982.513 660.616, 991.500 660.611 C 1000.193 660.605, 1005.397 662.831, 1006.922 667.207 C 1007.879 669.953, 1008.293 670.191, 1011.117 669.627 C 1012.840 669.282, 1014.644 669, 1015.125 669 C 1017.184 669, 1015.741 664.541, 1012.697 661.497 C 1007.058 655.858, 993.073 653.418, 981.718 656.092 M 1046.011 656.903 C 1039.476 659.226, 1036 662.848, 1036 667.333 C 1036 673.783, 1038.947 675.967, 1055.297 681.640 C 1066.514 685.532, 1069 687.160, 1069 690.616 C 1069 700.173, 1041.384 701.723, 1037.139 692.405 C 1036.512 691.030, 1036 689.196, 1036 688.328 C 1036 687.094, 1035.319 686.886, 1032.875 687.375 C 1031.156 687.719, 1029.356 688, 1028.875 688 C 1027.006 688, 1028.105 693.971, 1030.496 696.813 C 1033.962 700.932, 1040.064 703.128, 1049.772 703.753 C 1065.851 704.787, 1078 699.005, 1078 690.320 C 1078 683.821, 1074.720 681.302, 1060 676.500 C 1049.465 673.063, 1046.345 671.512, 1045.033 669.062 C 1043.666 666.507, 1044.667 664.224, 1047.884 662.560 C 1057.173 657.756, 1074 661.456, 1074 668.302 C 1074 670.038, 1074.470 670.180, 1078.212 669.582 C 1080.529 669.212, 1082.656 668.677, 1082.939 668.395 C 1083.221 668.112, 1082.563 666.220, 1081.476 664.191 C 1078.419 658.482, 1071.774 655.649, 1060.527 655.262 C 1053.523 655.021, 1050.270 655.389, 1046.011 656.903 M 1120.746 656.022 C 1106.162 659.705, 1096.680 670.442, 1096.671 683.282 C 1096.665 691.184, 1100.221 696.361, 1108.500 700.500 C 1113.968 703.234, 1115.386 703.500, 1124.500 703.497 C 1133.612 703.495, 1135.083 703.219, 1141.068 700.385 C 1147.753 697.220, 1154.061 691.695, 1156.617 686.767 C 1158.501 683.134, 1159.412 676.012, 1158.569 671.516 C 1157.682 666.788, 1151.734 660.227, 1146.046 657.703 C 1140.936 655.435, 1126.792 654.496, 1120.746 656.022 M 1194.312 657.016 C 1186.310 659.626, 1177.912 667.048, 1175.334 673.788 C 1173.127 679.558, 1173.113 688.402, 1175.305 692.631 C 1179.421 700.571, 1189.242 704.612, 1202.254 703.720 C 1212.062 703.048, 1219.315 699.721, 1224.964 693.303 C 1227.184 690.782, 1229 688.332, 1229 687.859 C 1229 687.387, 1227.088 687, 1224.750 687 C 1221.091 687, 1220.111 687.487, 1217.705 690.502 C 1209.656 700.591, 1191.844 701.390, 1184.828 691.977 C 1178.640 683.674, 1183.918 669.160, 1195.241 663.340 C 1199.434 661.185, 1201.918 660.627, 1207.500 660.589 C 1215.658 660.534, 1220.151 662.458, 1222.509 667.017 C 1223.828 669.569, 1224.626 670, 1228.026 670 C 1232.691 670, 1233.028 668.821, 1229.750 663.957 C 1224.312 655.888, 1207.728 652.639, 1194.312 657.016 M 1452 656.528 C 1435.473 661.069, 1425.444 676.400, 1430.440 689.483 C 1434.807 700.917, 1451.601 706.881, 1467.500 702.644 C 1493.583 695.693, 1500.681 667.520, 1478.757 657.960 C 1472.032 655.027, 1459.835 654.374, 1452 656.528 M 244.447 660.250 C 245.046 664.723, 248 699.061, 248 701.550 C 248 702.616, 249.275 703, 252.815 703 L 257.629 703 269.565 686.847 C 276.129 677.963, 282.137 669.525, 282.915 668.097 C 283.693 666.669, 284.444 665.950, 284.584 666.500 C 284.724 667.050, 285.388 675.509, 286.058 685.297 L 287.278 703.095 292.345 702.797 L 297.413 702.500 308.731 686.500 C 314.957 677.700, 322.316 667.237, 325.085 663.250 L 330.120 656 325.633 656 L 321.147 656 313.189 667.293 C 308.812 673.504, 302.929 682.111, 300.115 686.421 C 296.792 691.512, 295 693.530, 295 692.183 C 295 689.148, 293.073 665.211, 292.429 660.250 L 291.877 656 287.420 656 L 282.962 656 272.499 670.250 C 266.744 678.087, 260.518 686.656, 258.664 689.291 L 255.292 694.083 254.606 678.291 C 254.229 669.606, 253.664 661.038, 253.349 659.250 C 252.805 656.156, 252.564 656, 248.327 656 L 243.877 656 244.447 660.250 M 343 656.259 C 343 656.462, 340.075 666.696, 336.500 679 C 332.925 691.304, 330 701.764, 330 702.243 C 330 702.723, 331.886 702.977, 334.191 702.807 L 338.381 702.500 343.106 686 C 345.704 676.925, 348.106 668.150, 348.443 666.500 C 349.042 663.569, 349.145 663.661, 352.900 670.500 C 355.013 674.350, 360.086 683.125, 364.173 690 L 371.602 702.500 376.243 702.802 L 380.884 703.105 382.875 696.302 C 383.970 692.561, 386.922 682.479, 389.433 673.897 C 391.945 665.316, 394 657.752, 394 657.090 C 394 656.294, 392.589 655.989, 389.845 656.193 L 385.691 656.500 381.004 673 C 378.426 682.075, 375.998 690.793, 375.608 692.374 C 374.927 695.136, 374.752 694.960, 371.120 687.874 C 369.042 683.818, 363.960 675.100, 359.828 668.500 L 352.315 656.500 347.658 656.195 C 345.096 656.028, 343 656.056, 343 656.259 M 414.671 656.750 C 414.425 657.163, 411.464 667.050, 408.091 678.722 C 404.718 690.395, 401.695 700.632, 401.372 701.472 C 400.856 702.818, 403.824 703, 426.276 703 L 451.767 703 452.245 700.500 L 452.723 698 432.361 698 C 418.375 698, 412 697.660, 412 696.914 C 412 696.316, 412.969 692.491, 414.154 688.414 L 416.308 681 435.047 681 C 454.392 681, 455 680.876, 455 676.918 C 455 676.394, 447.042 676, 436.433 676 C 419.221 676, 417.903 675.872, 418.376 674.250 C 418.657 673.288, 419.619 669.913, 420.514 666.750 L 422.142 661 441.464 661 C 461.430 661, 462 660.887, 462 656.918 C 462 655.817, 415.326 655.651, 414.671 656.750 M 481.671 656.750 C 481.425 657.163, 478.464 667.050, 475.091 678.722 C 471.718 690.395, 468.695 700.632, 468.372 701.472 C 467.899 702.705, 468.667 703, 472.351 703 L 476.915 703 479.019 695.750 C 480.176 691.763, 481.580 687.038, 482.139 685.250 L 483.155 682 490.610 682 C 500.892 682, 504.118 683.568, 508.826 690.852 C 510.947 694.133, 513.258 698.209, 513.962 699.909 C 515.146 702.766, 515.611 703, 520.121 703 C 522.805 703, 525 702.689, 525 702.308 C 525 700.271, 516.479 687.716, 513.340 685.129 L 509.686 682.117 512.593 681.458 C 521.191 679.510, 523.326 678.653, 526.482 675.882 C 533.044 670.120, 532.112 661.318, 524.576 657.895 C 521.069 656.302, 517.821 656.041, 501.309 656.022 C 490.754 656.010, 481.917 656.337, 481.671 656.750 M 577.676 678.837 C 574.004 691.461, 571 702.062, 571 702.395 C 571 702.728, 572.976 703, 575.392 703 C 579.354 703, 579.848 702.731, 580.449 700.250 C 580.815 698.737, 581.991 694.518, 583.063 690.874 L 585.011 684.247 599.756 683.724 C 617.039 683.111, 621.160 682.075, 626.145 677.091 C 632.422 670.813, 632.237 663.450, 625.680 658.590 C 623.088 656.669, 621.300 656.475, 603.606 656.192 L 584.353 655.885 577.676 678.837 M 646.080 677.750 C 642.596 689.712, 639.525 700.288, 639.256 701.250 C 638.843 702.728, 639.459 703, 643.219 703 L 647.672 703 653.988 681.250 C 657.461 669.288, 660.513 658.712, 660.768 657.750 C 661.160 656.278, 660.534 656, 656.824 656 L 652.415 656 646.080 677.750 M 681.514 657.250 C 681.282 657.938, 678.194 668.513, 674.653 680.750 L 668.214 703 689.639 703 C 710.944 703, 711.069 702.987, 711.898 700.750 L 712.731 698.500 695.866 698.226 C 686.589 698.076, 679.012 697.626, 679.026 697.226 C 679.041 696.827, 681.684 687.388, 684.900 676.250 L 690.747 656 686.342 656 C 683.710 656, 681.767 656.503, 681.514 657.250 M 810.607 657.582 C 809.397 660.734, 810.167 661, 820.500 661 C 826.275 661, 830.985 661.337, 830.967 661.750 C 830.948 662.163, 828.299 671.500, 825.080 682.500 L 819.226 702.500 823.217 702.813 C 825.412 702.985, 827.425 702.908, 827.690 702.643 C 828.116 702.217, 836.381 674.683, 839.064 664.750 L 840.077 661 851.039 661 C 857.067 661, 862 660.587, 862 660.082 C 862 659.577, 862.273 658.452, 862.607 657.582 C 863.151 656.164, 860.512 656, 837.214 656 C 814.428 656, 811.139 656.196, 810.607 657.582 M 909.500 672.710 C 902.350 681.861, 894.105 692.420, 891.178 696.174 L 885.856 703 890.742 703 C 895.586 703, 895.671 702.943, 900.538 696.500 L 905.448 690 919.115 690 L 932.783 690 934.075 696.500 L 935.367 703 939.800 703 C 943.518 703, 944.164 702.718, 943.806 701.250 C 943.570 700.288, 941.155 689.714, 938.439 677.753 L 933.500 656.006 928 656.039 L 922.500 656.072 909.500 672.710 M 1255.514 657.250 C 1255.281 657.938, 1252.355 667.950, 1249.012 679.500 C 1245.669 691.050, 1242.729 701.087, 1242.478 701.804 C 1242.136 702.781, 1243.181 703.032, 1246.635 702.804 L 1251.249 702.500 1257.996 679.250 L 1264.743 656 1260.340 656 C 1257.710 656, 1255.767 656.503, 1255.514 657.250 M 1285.115 678.991 C 1275.152 691.636, 1267 702.211, 1267 702.491 C 1267 702.771, 1268.986 703, 1271.414 703 C 1275.649 703, 1276.037 702.737, 1281 696.500 L 1286.172 690 1299.548 690 L 1312.923 690 1313.861 693.750 C 1314.377 695.813, 1315.078 698.737, 1315.419 700.250 C 1315.979 702.735, 1316.458 703, 1320.403 703 L 1324.768 703 1322.496 693.250 C 1321.247 687.888, 1318.785 677.313, 1317.026 669.750 L 1313.828 656 1308.529 656 L 1303.230 656 1285.115 678.991 M 1340.667 656.667 C 1340.300 657.033, 1340 658.158, 1340 659.167 C 1340 660.829, 1340.987 661, 1350.567 661 C 1360.174 661, 1361.085 661.159, 1360.585 662.750 C 1359.520 666.141, 1349 702.432, 1349 702.714 C 1349 702.871, 1350.967 703, 1353.370 703 L 1357.741 703 1360.879 692.250 C 1362.605 686.337, 1365.293 677, 1366.852 671.500 L 1369.687 661.500 1380.482 661 C 1390.543 660.534, 1391.334 660.347, 1392.106 658.250 L 1392.936 656 1367.134 656 C 1352.944 656, 1341.033 656.300, 1340.667 656.667 M 1402.110 678.253 C 1398.595 690.489, 1395.510 701.063, 1395.253 701.750 C 1394.922 702.637, 1396.125 703, 1399.393 703 C 1401.927 703, 1404 702.849, 1404 702.665 C 1404 702.481, 1406.925 692.247, 1410.500 679.923 C 1414.075 667.599, 1417 657.175, 1417 656.758 C 1417 656.341, 1415.088 656.001, 1412.750 656.003 L 1408.500 656.005 1402.110 678.253 M 1515.514 657.250 C 1515.282 657.938, 1512.194 668.513, 1508.653 680.750 L 1502.214 703 1506.506 703 L 1510.798 703 1512.872 696.250 C 1514.012 692.538, 1516.420 683.991, 1518.223 677.257 C 1520.025 670.523, 1521.789 665.011, 1522.143 665.007 C 1522.497 665.003, 1523.083 665.774, 1523.446 666.720 C 1523.809 667.666, 1528.695 676.208, 1534.303 685.701 L 1544.500 702.962 1549.086 702.981 L 1553.672 703 1559.988 681.250 C 1563.461 669.288, 1566.513 658.712, 1566.768 657.750 C 1567.159 656.279, 1566.535 656, 1562.849 656 L 1558.465 656 1553.038 675.457 L 1547.610 694.914 1543.476 687.207 C 1541.202 682.968, 1536.077 674.212, 1532.087 667.750 L 1524.832 656 1520.385 656 C 1517.719 656, 1515.768 656.501, 1515.514 657.250 M 192.734 661.041 C 180.663 664.037, 172.995 672.656, 173.004 683.218 C 173.009 688.717, 175.856 693.376, 180.734 695.864 C 193.218 702.233, 209.886 696.885, 215.564 684.690 C 218.394 678.611, 218.630 674.130, 216.370 669.367 C 213.253 662.800, 201.842 658.780, 192.734 661.041 M 756.672 661.433 C 739.786 665.972, 732.482 684.655, 743.854 694.224 C 748.161 697.848, 756.478 699.492, 763.204 698.050 C 775.962 695.314, 783.873 685.438, 782.741 673.661 C 782.324 669.319, 781.703 668.082, 778.584 665.386 C 775.007 662.294, 768.444 659.932, 763.807 660.067 C 762.538 660.105, 759.328 660.719, 756.672 661.433 M 1123.951 661.314 C 1111.354 664.845, 1103.381 675.555, 1105.387 686.250 C 1107.325 696.580, 1122.705 701.782, 1135.501 696.435 C 1147.164 691.562, 1153.521 677.287, 1148.035 668.290 C 1144.227 662.044, 1132.974 658.784, 1123.951 661.314 M 1457.734 661.041 C 1445.663 664.037, 1437.995 672.656, 1438.004 683.218 C 1438.009 688.717, 1440.856 693.376, 1445.734 695.864 C 1458.218 702.233, 1474.886 696.885, 1480.564 684.690 C 1483.394 678.611, 1483.630 674.130, 1481.370 669.367 C 1478.253 662.800, 1466.842 658.780, 1457.734 661.041 M 487.634 666.250 C 486.805 669.138, 485.825 672.737, 485.455 674.250 L 484.783 677 496.642 676.976 C 515.513 676.938, 521.500 674.637, 521.500 667.422 C 521.500 661.772, 519.343 661.033, 502.821 661.015 L 489.142 661 487.634 666.250 M 591.670 661.750 C 591.139 662.638, 587 677.318, 587 678.314 C 587 679.272, 599.123 679.112, 607.408 678.045 C 611.457 677.523, 615.389 676.358, 616.908 675.230 C 622.718 670.916, 623.494 664.458, 618.477 662.171 C 615.645 660.881, 592.407 660.516, 591.670 661.750 M 918.211 673.425 L 909.921 684.500 920.091 684.786 C 925.684 684.944, 930.453 684.881, 930.687 684.646 C 931.077 684.256, 927.236 662.782, 926.722 662.481 C 926.600 662.409, 922.770 667.334, 918.211 673.425 M 1299.217 672.831 C 1294.698 678.842, 1291 684.039, 1291 684.380 C 1291 685.145, 1310.454 685.213, 1311.216 684.451 C 1311.518 684.149, 1311.323 682.011, 1310.783 679.701 C 1310.243 677.390, 1309.268 672.440, 1308.617 668.701 L 1307.434 661.902 1299.217 672.831" stroke="none" fill="#ffffff" fill-rule="evenodd"/></svg>
