<svg width="2954" height="1120" xmlns="http://www.w3.org/2000/svg" xmlns:xlink="http://www.w3.org/1999/xlink" xml:space="preserve" overflow="hidden"><g transform="translate(-716 -721)"><rect x="734.5" y="815.5" width="894" height="314" stroke="#156082" stroke-width="6.875" stroke-miterlimit="8" fill="#1E466E"/><text fill="#FFFFFF" font-family="Aptos,Aptos_MSFontService,sans-serif" font-weight="400" font-size="110" transform="matrix(1 0 0 1 814.699 942)">Personal Safety </text><text fill="#FFFFFF" font-family="Aptos,Aptos_MSFontService,sans-serif" font-weight="400" font-size="110" transform="matrix(1 0 0 1 920.986 1062)">Knowledge</text><rect x="734.5" y="1129.5" width="894" height="618" stroke="#CCD2D8" stroke-width="6.875" stroke-miterlimit="8" stroke-opacity="0.901961" fill="#D2DAE2" fill-opacity="0.898039"/><text font-family="Aptos,Aptos_MSFontService,sans-serif" font-weight="400" font-size="92" transform="matrix(1 0 0 1 772.75 1243)">•</text><text font-family="Aptos,Aptos_MSFontService,sans-serif" font-weight="400" font-size="92" transform="matrix(1 0 0 1 855.25 1243)">Equipment </text><text font-family="Aptos,Aptos_MSFontService,sans-serif" font-weight="400" font-size="92" transform="matrix(1 0 0 1 855.25 1343)">knowledge &amp; </text><text font-family="Aptos,Aptos_MSFontService,sans-serif" font-weight="400" font-size="92" transform="matrix(1 0 0 1 855.25 1444)">inspections</text><text font-family="Aptos,Aptos_MSFontService,sans-serif" font-weight="400" font-size="92" transform="matrix(1 0 0 1 772.75 1561)">•</text><text font-family="Aptos,Aptos_MSFontService,sans-serif" font-weight="400" font-size="92" transform="matrix(1 0 0 1 855.25 1561)">Experience &amp; </text><text font-family="Aptos,Aptos_MSFontService,sans-serif" font-weight="400" font-size="92" transform="matrix(1 0 0 1 855.25 1662)">mental models</text><rect x="1753.5" y="815.5" width="894" height="314" stroke="#156082" stroke-width="6.875" stroke-miterlimit="8" fill="#1E466E"/><text fill="#FFFFFF" font-family="Aptos,Aptos_MSFontService,sans-serif" font-weight="400" font-size="110" transform="matrix(1 0 0 1 2052.18 942)">Safety </text><text fill="#FFFFFF" font-family="Aptos,Aptos_MSFontService,sans-serif" font-weight="400" font-size="110" transform="matrix(1 0 0 1 1832.02 1062)">Consciousness</text><rect x="1753.5" y="1129.5" width="894" height="618" stroke="#CCD2D8" stroke-width="6.875" stroke-miterlimit="8" stroke-opacity="0.901961" fill="#D2DAE2" fill-opacity="0.901961"/><text font-family="Aptos,Aptos_MSFontService,sans-serif" font-weight="400" font-size="92" transform="matrix(1 0 0 1 1791.62 1243)">•</text><text font-family="Aptos,Aptos_MSFontService,sans-serif" font-weight="400" font-size="92" transform="matrix(1 0 0 1 1874.12 1243)">Company support</text><text font-family="Aptos,Aptos_MSFontService,sans-serif" font-weight="400" font-size="92" transform="matrix(1 0 0 1 1791.62 1360)">•</text><text font-family="Aptos,Aptos_MSFontService,sans-serif" font-weight="400" font-size="92" transform="matrix(1 0 0 1 1874.12 1360)">Relationship with </text><text font-family="Aptos,Aptos_MSFontService,sans-serif" font-weight="400" font-size="92" transform="matrix(1 0 0 1 1874.12 1461)">co</text><text font-family="Aptos,Aptos_MSFontService,sans-serif" font-weight="400" font-size="92" transform="matrix(1 0 0 1 1972.83 1461)">-</text><text font-family="Aptos,Aptos_MSFontService,sans-serif" font-weight="400" font-size="92" transform="matrix(1 0 0 1 2004.02 1461)">driver</text><rect x="2772.5" y="815.5" width="894" height="314" stroke="#156082" stroke-width="6.875" stroke-miterlimit="8" fill="#1E466E"/><text fill="#FFFFFF" font-family="Aptos,Aptos_MSFontService,sans-serif" font-weight="400" font-size="110" transform="matrix(1 0 0 1 2990.92 942)">Decision</text><text fill="#FFFFFF" font-family="Aptos,Aptos_MSFontService,sans-serif" font-weight="400" font-size="110" transform="matrix(1 0 0 1 3409.38 942)">-</text><text fill="#FFFFFF" font-family="Aptos,Aptos_MSFontService,sans-serif" font-weight="400" font-size="110" transform="matrix(1 0 0 1 3045.85 1062)">making</text><rect x="2772.5" y="1129.5" width="894" height="618" stroke="#CCD2D8" stroke-width="6.875" stroke-miterlimit="8" stroke-opacity="0.901961" fill="#D2DAE2" fill-opacity="0.901961"/><text font-family="Aptos,Aptos_MSFontService,sans-serif" font-weight="400" font-size="92" transform="matrix(1 0 0 1 2810.5 1243)">•</text><text font-family="Aptos,Aptos_MSFontService,sans-serif" font-weight="400" font-size="92" transform="matrix(1 0 0 1 2893 1243)">Road</text><text font-family="Aptos,Aptos_MSFontService,sans-serif" font-weight="400" font-size="92" transform="matrix(1 0 0 1 3099.2 1243)">-</text><text font-family="Aptos,Aptos_MSFontService,sans-serif" font-weight="400" font-size="92" transform="matrix(1 0 0 1 3130.39 1243)">scanning </text><text font-family="Aptos,Aptos_MSFontService,sans-serif" font-weight="400" font-size="92" transform="matrix(1 0 0 1 2893 1343)">behaviour</text><text font-family="Aptos,Aptos_MSFontService,sans-serif" font-weight="400" font-size="92" transform="matrix(1 0 0 1 3306.26 1343)">&amp; </text><text font-family="Aptos,Aptos_MSFontService,sans-serif" font-weight="400" font-size="92" transform="matrix(1 0 0 1 2893 1444)">recognition</text><text font-family="Aptos,Aptos_MSFontService,sans-serif" font-weight="400" font-size="92" transform="matrix(1 0 0 1 2810.5 1561)">•</text><text font-family="Aptos,Aptos_MSFontService,sans-serif" font-weight="400" font-size="92" transform="matrix(1 0 0 1 2893 1561)">Anticipation</text></g></svg>