<svg width="4030" height="1049" xmlns="http://www.w3.org/2000/svg" xmlns:xlink="http://www.w3.org/1999/xlink" xml:space="preserve" overflow="hidden"><g transform="translate(-221 -425)"><path d="M224.5 950.5C224.5 663.312 458.431 430.5 747 430.5 1035.57 430.5 1269.5 663.312 1269.5 950.5 1269.5 1237.69 1035.57 1470.5 747 1470.5 458.431 1470.5 224.5 1237.69 224.5 950.5Z" stroke="#156082" stroke-width="6.875" stroke-miterlimit="8" fill="#156082" fill-rule="evenodd"/><text fill="#FFFFFF" font-family="Aptos,Aptos_MSFontService,sans-serif" font-weight="400" font-size="110" transform="matrix(1 0 0 1 487.952 920)">Qualitative </text><text fill="#FFFFFF" font-family="Aptos,Aptos_MSFontService,sans-serif" font-weight="400" font-size="110" transform="matrix(1 0 0 1 522.419 1052)">Research</text><path d="M1507.5 950.5C1507.5 663.312 1741.43 430.5 2030 430.5 2318.57 430.5 2552.5 663.312 2552.5 950.5 2552.5 1237.69 2318.57 1470.5 2030 1470.5 1741.43 1470.5 1507.5 1237.69 1507.5 950.5Z" stroke="#156082" stroke-width="6.875" stroke-miterlimit="8" fill="#156082" fill-rule="evenodd"/><text fill="#FFFFFF" font-family="Aptos,Aptos_MSFontService,sans-serif" font-weight="400" font-size="110" transform="matrix(1 0 0 1 1737.29 920)">Quantitative </text><text fill="#FFFFFF" font-family="Aptos,Aptos_MSFontService,sans-serif" font-weight="400" font-size="110" transform="matrix(1 0 0 1 1805.56 1052)">Research</text><path d="M2650.47 898.902 2866.53 898.902 2866.53 938.18 2650.47 938.18ZM2650.47 957.82 2866.53 957.82 2866.53 997.098 2650.47 997.098Z" stroke="#000000" stroke-width="6.875" stroke-miterlimit="8" fill-rule="evenodd"/><path d="M3052.5 601.17C3052.5 505.807 3129.81 428.5 3225.17 428.5L4074.83 428.5C4170.19 428.5 4247.5 505.807 4247.5 601.17L4247.5 1291.83C4247.5 1387.19 4170.19 1464.5 4074.83 1464.5L3225.17 1464.5C3129.81 1464.5 3052.5 1387.19 3052.5 1291.83Z" stroke="#E76254" stroke-width="6.875" stroke-miterlimit="8" fill="#E76254" fill-rule="evenodd"/><text fill="#FFFFFF" font-family="Aptos,Aptos_MSFontService,sans-serif" font-weight="400" font-size="110" transform="matrix(1 0 0 1 3509.15 850)">Mixed</text><text fill="#FFFFFF" font-family="Aptos,Aptos_MSFontService,sans-serif" font-weight="400" font-size="110" transform="matrix(1 0 0 1 3440.68 982)">Methods </text><text fill="#FFFFFF" font-family="Aptos,Aptos_MSFontService,sans-serif" font-weight="400" font-size="110" transform="matrix(1 0 0 1 3425.39 1114)">Research</text><path d="M1315.87 942.51 1370.51 942.51 1370.51 891.54 1418.49 891.54 1418.49 942.51 1473.13 942.51 1473.13 990.49 1418.49 990.49 1418.49 1041.46 1370.51 1041.46 1370.51 990.49 1315.87 990.49Z" stroke="#000000" stroke-width="6.875" stroke-miterlimit="8" fill-rule="evenodd"/></g></svg>